<svg id="svg" version="1.1" xmlns="http://www.w3.org/2000/svg" xmlns:xlink="http://www.w3.org/1999/xlink" width="400" height="400" viewBox="0, 0, 400,400"><g id="svgg"><path id="path0" d="M284.244 112.328 C 284.115 112.538,284.262 112.920,284.572 113.177 C 285.017 113.546,285.117 113.516,285.046 113.034 C 284.925 112.208,284.532 111.862,284.244 112.328 M256.805 120.791 C 256.467 121.422,256.497 121.538,256.950 121.364 C 257.263 121.244,257.638 121.338,257.783 121.573 C 257.928 121.808,258.257 122.000,258.513 122.000 C 258.769 122.000,258.575 121.718,258.082 121.373 C 257.590 121.028,257.290 120.578,257.417 120.373 C 257.544 120.168,257.553 120.000,257.438 120.000 C 257.322 120.000,257.038 120.356,256.805 120.791 M128.400 166.043 C 128.400 166.317,128.016 166.390,127.400 166.236 C 126.617 166.039,126.399 166.138,126.394 166.692 C 126.389 167.296,126.331 167.311,126.000 166.800 C 125.632 166.231,125.375 166.977,125.553 168.100 C 125.579 168.265,125.221 168.400,124.757 168.400 C 124.172 168.400,123.985 168.584,124.145 169.000 C 124.271 169.330,124.201 169.600,123.987 169.600 C 123.178 169.600,123.489 321.621,124.300 322.286 C 124.685 322.601,124.775 322.745,124.500 322.606 C 124.225 322.467,124.000 322.543,124.000 322.776 C 124.000 323.009,124.270 323.200,124.600 323.200 C 125.173 323.200,125.269 323.365,125.360 324.500 C 125.426 325.324,126.891 325.971,128.724 325.986 C 129.905 325.996,130.359 325.858,130.168 325.548 C 129.997 325.271,130.104 325.174,130.444 325.298 C 131.231 325.584,133.196 323.656,132.902 322.888 C 132.756 322.509,132.829 322.371,133.090 322.532 C 133.962 323.071,134.000 320.017,134.000 248.967 L 134.000 176.400 188.998 176.400 L 243.996 176.400 244.098 248.962 C 244.154 288.871,244.065 321.440,243.900 321.338 C 243.735 321.236,243.600 321.433,243.600 321.776 C 243.600 322.119,243.774 322.400,243.987 322.400 C 244.201 322.400,244.284 322.637,244.173 322.927 C 243.825 323.832,245.564 325.665,246.490 325.371 C 247.029 325.200,247.209 325.262,247.026 325.557 C 246.634 326.193,250.024 326.108,250.875 325.461 C 251.247 325.179,251.607 324.690,251.675 324.375 C 251.744 324.061,252.070 323.566,252.400 323.276 C 252.743 322.975,252.829 322.675,252.600 322.575 C 251.758 322.208,252.313 300.603,253.185 299.813 C 253.604 299.435,253.846 298.864,253.724 298.546 C 253.588 298.192,253.715 298.012,254.051 298.084 C 254.353 298.148,254.551 297.962,254.490 297.670 C 254.430 297.379,254.544 297.242,254.745 297.366 C 254.945 297.490,255.355 297.289,255.655 296.919 C 256.123 296.341,256.115 296.290,255.600 296.553 C 255.243 296.735,255.280 296.629,255.694 296.290 C 256.075 295.977,256.270 295.604,256.127 295.460 C 255.984 295.317,256.146 295.200,256.488 295.200 C 257.078 295.200,258.400 293.000,258.400 292.016 C 258.400 291.761,258.560 291.651,258.755 291.772 C 258.950 291.893,259.332 291.723,259.604 291.396 C 259.876 291.068,259.976 290.800,259.827 290.800 C 259.677 290.800,260.060 290.328,260.678 289.750 C 261.295 289.173,261.485 288.925,261.100 289.199 C 260.592 289.561,260.400 289.571,260.400 289.236 C 260.400 288.982,260.805 288.611,261.300 288.412 C 261.795 288.213,262.020 288.038,261.800 288.023 C 261.580 288.008,261.859 287.592,262.419 287.098 C 262.979 286.604,263.241 286.290,263.000 286.400 C 262.759 286.510,262.920 286.273,263.358 285.873 C 263.796 285.474,264.480 285.232,264.878 285.336 C 265.334 285.456,265.516 285.355,265.371 285.063 C 265.244 284.808,265.424 284.949,265.770 285.376 C 266.231 285.944,266.403 285.998,266.413 285.576 C 266.422 285.149,266.571 285.192,266.987 285.742 C 267.296 286.150,267.784 286.405,268.072 286.309 C 268.359 286.214,268.786 286.510,269.020 286.968 C 269.255 287.425,269.751 287.775,270.123 287.744 C 270.496 287.714,270.800 287.868,270.800 288.087 C 270.800 288.306,271.038 288.394,271.329 288.283 C 271.619 288.171,272.075 288.429,272.342 288.855 C 272.608 289.282,273.000 289.523,273.213 289.392 C 273.426 289.260,273.600 289.354,273.600 289.600 C 273.600 289.846,273.780 289.936,274.000 289.800 C 274.220 289.664,274.400 289.757,274.400 290.006 C 274.400 290.255,274.715 290.395,275.100 290.318 C 275.485 290.240,276.137 290.598,276.548 291.113 C 276.960 291.627,277.545 291.953,277.848 291.837 C 278.152 291.720,278.400 291.814,278.400 292.046 C 278.400 292.277,278.625 292.391,278.900 292.298 C 279.175 292.206,279.638 292.416,279.930 292.765 C 280.354 293.274,280.408 293.281,280.199 292.800 C 280.056 292.470,280.290 292.597,280.720 293.083 C 281.149 293.569,281.613 293.854,281.750 293.716 C 281.888 293.579,282.000 293.692,282.000 293.967 C 282.000 294.242,282.221 294.393,282.492 294.303 C 282.763 294.212,283.438 294.559,283.992 295.073 C 284.546 295.588,285.225 295.922,285.500 295.817 C 285.775 295.711,286.000 295.769,286.000 295.946 C 286.000 296.122,286.270 296.267,286.600 296.267 C 286.930 296.267,287.200 296.106,287.200 295.910 C 287.200 295.337,287.958 295.966,288.420 296.922 C 288.829 297.769,288.822 297.773,288.222 297.024 C 287.880 296.596,287.600 296.439,287.600 296.675 C 287.600 297.314,288.704 298.106,289.182 297.811 C 289.412 297.669,289.600 297.743,289.600 297.976 C 289.600 298.209,289.791 298.400,290.024 298.400 C 290.257 298.400,290.314 298.175,290.152 297.900 C 289.989 297.625,290.429 298.004,291.128 298.743 C 291.902 299.560,292.635 299.995,293.000 299.855 C 293.330 299.729,293.600 299.810,293.600 300.036 C 293.600 300.262,293.780 300.336,294.000 300.200 C 294.220 300.064,294.400 300.173,294.400 300.443 C 294.400 300.713,294.519 300.814,294.664 300.669 C 294.809 300.524,295.188 300.776,295.506 301.229 C 295.823 301.683,296.334 301.957,296.642 301.839 C 296.949 301.722,297.200 301.814,297.200 302.046 C 297.200 302.277,297.421 302.393,297.692 302.303 C 297.963 302.212,298.516 302.512,298.922 302.969 C 299.329 303.426,299.544 303.530,299.401 303.200 C 299.242 302.834,299.371 302.881,299.730 303.321 C 300.173 303.863,300.371 303.913,300.528 303.521 C 300.663 303.185,300.748 303.248,300.768 303.700 C 300.786 304.085,301.070 304.423,301.400 304.450 C 302.553 304.546,302.736 304.603,303.067 304.964 C 303.263 305.178,303.153 305.207,302.800 305.034 C 302.470 304.873,302.555 305.028,302.989 305.379 C 303.422 305.730,304.007 305.929,304.289 305.821 C 304.570 305.713,304.800 305.799,304.800 306.013 C 304.800 306.226,305.070 306.400,305.400 306.400 C 306.080 306.400,306.204 307.026,305.599 307.401 C 305.332 307.566,305.337 307.908,305.613 308.424 C 306.012 309.169,305.742 309.412,304.700 309.247 C 303.863 309.115,304.462 312.412,305.500 313.652 C 306.105 314.374,306.347 314.810,306.038 314.620 C 305.621 314.365,305.565 314.420,305.819 314.831 C 306.008 315.136,306.186 315.710,306.215 316.107 C 306.244 316.504,306.504 317.047,306.793 317.314 C 307.212 317.702,307.259 317.679,307.029 317.200 C 306.870 316.870,307.024 316.949,307.370 317.376 C 307.717 317.804,308.000 318.042,308.000 317.907 C 308.000 317.772,308.544 318.205,309.209 318.870 C 309.914 319.575,310.664 319.984,311.009 319.852 C 311.334 319.727,311.600 319.799,311.600 320.013 C 311.600 320.226,312.680 320.400,314.000 320.400 C 315.320 320.400,316.400 320.226,316.400 320.013 C 316.400 319.799,316.639 319.717,316.932 319.829 C 317.224 319.941,317.679 319.621,317.944 319.117 C 318.251 318.532,318.345 318.474,318.203 318.957 C 318.016 319.596,318.076 319.635,318.591 319.208 C 318.926 318.930,319.200 318.442,319.200 318.124 C 319.200 317.743,319.453 317.626,319.944 317.782 C 320.697 318.021,321.597 317.291,321.744 316.320 C 321.787 316.034,321.947 315.601,322.099 315.357 C 322.252 315.114,322.303 314.533,322.213 314.066 C 322.123 313.599,322.246 313.095,322.486 312.947 C 322.764 312.775,322.817 312.882,322.632 313.238 C 322.472 313.547,322.608 313.473,322.934 313.073 C 323.656 312.188,323.624 309.112,322.890 308.963 C 322.610 308.906,322.564 308.952,322.790 309.063 C 323.015 309.175,323.200 309.454,323.200 309.682 C 323.200 309.936,322.969 309.907,322.608 309.607 C 322.178 309.250,322.124 308.916,322.409 308.382 C 322.659 307.916,322.662 307.562,322.419 307.411 C 322.208 307.281,322.136 306.910,322.260 306.587 C 322.384 306.264,322.292 306.000,322.055 306.000 C 321.819 306.000,321.722 305.749,321.839 305.442 C 322.086 304.798,320.467 303.511,319.873 303.878 C 319.655 304.013,319.590 303.940,319.729 303.715 C 320.060 303.179,318.575 301.845,318.025 302.184 C 317.791 302.329,317.600 302.263,317.600 302.039 C 317.600 301.779,316.676 301.716,315.056 301.868 C 313.120 302.048,312.436 301.973,312.192 301.553 C 312.016 301.249,312.016 301.130,312.192 301.289 C 312.595 301.653,314.107 298.897,313.788 298.380 C 313.659 298.171,313.743 298.000,313.976 298.000 C 314.209 298.000,314.400 297.640,314.400 297.200 C 314.400 296.760,314.226 296.400,314.013 296.400 C 313.799 296.400,313.716 296.164,313.827 295.875 C 313.938 295.586,313.631 295.001,313.145 294.575 C 312.565 294.066,312.364 294.006,312.559 294.400 C 312.722 294.730,312.224 294.308,311.452 293.461 C 310.680 292.615,309.858 292.041,309.624 292.185 C 309.391 292.329,309.200 292.242,309.200 291.990 C 309.200 291.739,308.977 291.608,308.704 291.699 C 308.431 291.790,307.870 291.434,307.456 290.908 C 307.042 290.382,306.461 290.044,306.165 290.158 C 305.868 290.272,305.513 290.183,305.376 289.961 C 305.239 289.739,304.920 289.627,304.667 289.711 C 304.415 289.795,303.870 289.434,303.456 288.908 C 303.042 288.382,302.455 288.047,302.152 288.163 C 301.848 288.280,301.600 288.201,301.600 287.987 C 301.600 287.774,301.409 287.600,301.176 287.600 C 300.943 287.600,300.867 287.825,301.006 288.100 C 301.145 288.375,300.870 288.104,300.395 287.498 C 299.919 286.892,299.366 286.497,299.165 286.622 C 298.964 286.746,298.800 286.646,298.800 286.400 C 298.800 286.154,298.620 286.064,298.400 286.200 C 298.180 286.336,298.000 286.249,298.000 286.006 C 298.000 285.482,296.727 285.628,296.306 286.200 C 296.144 286.420,296.009 286.217,296.006 285.749 C 295.999 284.764,295.029 283.811,294.418 284.189 C 294.188 284.331,294.000 284.246,294.000 284.000 C 294.000 283.754,293.820 283.664,293.600 283.800 C 293.380 283.936,293.187 283.812,293.172 283.524 C 293.156 283.236,292.989 283.360,292.800 283.800 C 292.469 284.571,292.455 284.569,292.428 283.724 C 292.413 283.242,292.192 282.719,291.938 282.562 C 291.652 282.385,291.585 282.452,291.762 282.738 C 291.919 282.992,291.857 283.200,291.624 283.200 C 291.391 283.200,291.200 282.919,291.200 282.576 C 291.200 282.233,291.020 282.064,290.800 282.200 C 290.580 282.336,290.400 282.257,290.400 282.024 C 290.400 281.791,290.209 281.600,289.976 281.600 C 289.743 281.600,289.686 281.825,289.848 282.100 C 290.011 282.375,289.589 282.015,288.912 281.300 C 288.234 280.585,287.436 280.003,287.140 280.006 C 286.727 280.011,286.742 280.104,287.200 280.400 C 287.620 280.671,287.646 280.790,287.287 280.794 C 287.006 280.797,286.672 280.531,286.546 280.202 C 286.419 279.874,286.155 279.704,285.958 279.826 C 285.761 279.948,285.600 279.846,285.600 279.600 C 285.600 279.354,285.440 279.251,285.245 279.372 C 284.820 279.635,283.902 278.631,284.251 278.283 C 284.385 278.149,286.273 278.148,288.447 278.280 C 291.059 278.439,292.400 278.380,292.400 278.107 C 292.400 277.880,292.760 277.599,293.200 277.484 C 293.640 277.369,294.000 277.438,294.000 277.637 C 294.000 277.837,294.371 278.000,294.824 278.000 C 295.324 278.000,295.540 277.826,295.374 277.557 C 295.187 277.255,295.387 277.205,296.000 277.400 C 296.654 277.608,296.818 277.553,296.600 277.200 C 296.382 276.847,296.546 276.792,297.200 277.000 C 297.744 277.173,298.006 277.133,297.862 276.901 C 297.722 276.674,298.056 276.598,298.672 276.716 C 299.268 276.830,299.619 276.755,299.488 276.542 C 299.174 276.035,302.052 276.376,302.736 276.926 C 303.184 277.287,303.184 277.427,302.736 277.779 C 302.183 278.213,301.869 282.528,302.415 282.191 C 302.577 282.091,302.685 282.297,302.655 282.649 C 302.625 283.001,302.960 283.494,303.400 283.745 C 304.435 284.334,304.832 284.888,304.626 285.454 C 304.399 286.076,306.630 288.152,307.167 287.820 C 307.405 287.673,307.600 287.711,307.600 287.904 C 307.600 288.097,309.130 288.255,311.000 288.255 C 312.870 288.255,314.400 288.097,314.400 287.904 C 314.400 287.711,314.561 287.652,314.758 287.774 C 314.955 287.896,315.224 287.715,315.355 287.372 C 315.498 287.000,315.796 286.871,316.097 287.051 C 316.395 287.231,316.356 287.047,316.000 286.600 C 315.650 286.161,315.609 285.972,315.900 286.147 C 316.175 286.312,316.400 286.257,316.400 286.024 C 316.400 285.791,316.591 285.600,316.824 285.600 C 317.057 285.600,317.119 285.808,316.962 286.062 C 316.789 286.341,316.852 286.415,317.121 286.249 C 317.365 286.098,317.452 285.681,317.315 285.322 C 317.148 284.888,317.220 284.765,317.527 284.955 C 317.830 285.142,317.908 285.027,317.754 284.624 C 317.613 284.257,317.783 283.905,318.173 283.755 C 318.534 283.616,319.093 282.994,319.415 282.371 C 320.050 281.144,320.225 278.214,319.642 278.574 C 319.445 278.696,319.177 278.517,319.046 278.177 C 318.887 277.762,318.973 277.651,319.305 277.838 C 319.577 277.992,319.391 277.720,318.891 277.235 C 318.391 276.750,318.087 276.183,318.215 275.976 C 318.343 275.769,318.246 275.600,318.000 275.600 C 317.754 275.600,317.664 275.420,317.800 275.200 C 317.936 274.980,317.689 274.800,317.251 274.800 C 316.529 274.800,315.708 273.504,315.921 272.700 C 316.002 272.394,315.397 272.254,314.500 272.370 C 314.225 272.406,314.000 272.282,314.000 272.095 C 314.000 271.907,312.740 271.802,311.200 271.861 L 308.400 271.967 308.327 269.684 C 308.287 268.428,308.287 266.905,308.328 266.300 C 308.369 265.695,308.228 265.200,308.014 265.200 C 307.800 265.200,307.713 264.970,307.821 264.689 C 307.929 264.407,307.730 263.822,307.379 263.389 C 307.028 262.955,306.870 262.870,307.029 263.200 C 307.188 263.530,306.924 263.395,306.443 262.900 C 304.956 261.370,298.809 261.883,298.794 263.539 C 298.790 263.961,298.682 264.038,298.494 263.752 C 298.284 263.432,297.006 263.403,294.000 263.653 C 291.690 263.844,287.235 263.884,284.100 263.742 C 280.285 263.570,278.400 263.621,278.400 263.897 C 278.400 264.124,277.860 264.388,277.200 264.485 C 276.540 264.582,276.000 264.513,276.000 264.331 C 276.000 264.149,275.505 264.003,274.900 264.006 C 274.283 264.010,274.000 264.141,274.256 264.306 C 274.586 264.519,274.558 264.742,274.156 265.116 C 273.699 265.540,273.600 265.522,273.600 265.016 C 273.600 264.657,273.250 264.400,272.760 264.400 C 271.934 264.400,271.923 264.288,272.060 257.400 C 272.137 253.550,272.054 250.400,271.876 250.400 C 271.698 250.400,271.669 250.212,271.811 249.982 C 272.108 249.502,271.258 248.317,270.813 248.592 C 270.650 248.693,270.480 247.386,270.437 245.688 C 270.393 243.989,270.187 242.540,269.978 242.467 C 269.770 242.393,269.600 242.107,269.600 241.831 C 269.600 241.555,268.537 240.194,267.238 238.808 C 264.218 235.585,262.358 235.497,259.361 238.439 L 257.600 240.167 257.600 244.530 L 257.600 248.893 256.587 248.700 C 255.524 248.496,254.089 249.815,253.917 251.154 C 253.871 251.509,253.728 249.190,253.600 246.000 C 253.421 241.543,253.347 243.182,253.283 253.076 C 253.231 261.137,253.050 266.045,252.800 266.200 C 252.536 266.363,252.400 261.865,252.400 253.007 C 252.400 239.697,252.391 239.556,251.500 238.350 C 250.789 237.388,250.600 236.600,250.600 234.589 C 250.600 232.467,250.749 231.907,251.500 231.207 C 252.922 229.882,252.854 221.903,251.400 219.600 C 250.364 217.959,250.125 215.976,250.761 214.302 C 251.000 213.674,250.932 212.619,250.561 211.189 C 250.118 209.480,250.000 205.044,250.000 190.087 C 250.000 169.365,250.083 170.066,247.487 168.744 C 246.559 168.271,245.215 167.439,244.500 166.895 C 243.785 166.350,243.200 166.052,243.200 166.233 C 243.200 166.413,242.984 166.344,242.720 166.080 C 241.442 164.802,238.120 165.500,236.914 167.300 C 234.993 170.167,232.604 169.884,227.746 166.212 C 227.393 165.946,226.632 166.134,225.316 166.812 L 223.400 167.800 198.611 167.912 C 172.894 168.028,168.000 167.708,168.000 165.908 C 168.000 165.739,159.090 165.600,148.200 165.600 C 133.976 165.600,128.400 165.725,128.400 166.043 M253.344 226.000 C 253.344 228.090,253.412 228.945,253.494 227.900 C 253.576 226.855,253.576 225.145,253.494 224.100 C 253.412 223.055,253.344 223.910,253.344 226.000 M254.298 262.480 C 254.226 264.526,254.166 262.960,254.165 259.000 C 254.165 255.040,254.224 253.366,254.298 255.280 C 254.371 257.194,254.371 260.434,254.298 262.480 M253.293 310.267 C 253.242 316.024,253.096 321.064,252.970 321.467 C 252.761 322.132,252.780 322.137,253.176 321.524 C 253.472 321.066,253.577 317.437,253.500 310.324 L 253.386 299.800 253.293 310.267 M132.800 323.330 C 132.800 323.402,132.321 323.897,131.735 324.430 C 130.764 325.315,130.752 324.940,131.711 323.700 C 132.058 323.252,132.800 323.000,132.800 323.330 " stroke="none" fill="#94a2ab" fill-rule="evenodd"></path><path id="path1" d="M260.165 90.817 C 257.452 91.677,256.800 92.757,256.800 96.395 C 256.800 97.980,257.975 98.228,258.010 96.651 C 258.032 95.649,260.911 92.336,262.313 91.699 C 264.274 90.808,264.268 90.814,263.588 90.384 C 262.858 89.922,263.071 89.895,260.165 90.817 M255.843 100.466 C 255.207 101.053,254.352 101.468,253.943 101.389 C 253.535 101.310,253.200 101.438,253.200 101.672 C 253.200 101.924,252.929 101.873,252.538 101.549 C 251.934 101.047,251.935 101.113,252.555 102.313 C 252.929 103.035,253.394 103.527,253.589 103.407 C 253.785 103.286,254.075 103.398,254.234 103.655 C 254.415 103.948,254.350 104.016,254.062 103.838 C 253.768 103.657,253.600 103.861,253.600 104.400 C 253.600 104.866,253.778 105.137,253.995 105.003 C 254.224 104.862,254.288 105.026,254.148 105.390 C 253.881 106.088,255.904 109.307,256.412 108.992 C 256.584 108.886,256.626 109.180,256.504 109.645 C 256.303 110.415,256.364 110.447,257.190 110.005 C 257.688 109.739,257.983 109.704,257.845 109.928 C 257.705 110.153,258.245 110.551,259.051 110.817 C 260.595 111.326,262.895 112.710,264.161 113.890 C 264.689 114.382,264.825 114.416,264.603 114.000 C 264.343 113.512,264.384 113.494,264.821 113.900 C 265.930 114.930,273.637 114.231,272.976 113.161 C 272.853 112.962,272.898 112.800,273.076 112.800 C 273.505 112.801,273.221 108.727,272.752 108.151 C 272.507 107.850,271.203 107.769,268.809 107.905 C 264.034 108.177,261.364 107.026,259.950 104.084 C 259.452 103.048,258.584 101.570,258.022 100.800 L 257.000 99.400 255.843 100.466 M287.809 116.759 C 287.483 118.241,288.364 120.363,290.190 122.497 C 292.784 125.527,291.842 126.461,287.516 125.147 C 281.819 123.417,271.859 126.095,266.600 130.772 C 265.708 131.565,263.276 132.868,261.310 133.605 C 259.945 134.117,258.906 136.769,259.936 137.112 C 260.186 137.195,259.448 138.069,258.295 139.054 C 257.143 140.038,256.192 141.149,256.181 141.522 C 256.171 141.895,255.924 142.147,255.631 142.083 C 255.339 142.019,254.762 142.272,254.350 142.645 C 253.510 143.406,253.327 144.211,254.100 143.747 C 254.440 143.543,254.424 143.663,254.051 144.123 C 253.457 144.856,252.998 145.051,253.400 144.400 C 253.785 143.777,252.956 143.930,252.415 144.582 C 252.149 144.903,252.064 145.381,252.227 145.644 C 252.406 145.933,252.354 146.019,252.098 145.861 C 251.864 145.716,251.252 146.093,250.736 146.699 C 249.664 147.960,248.140 148.140,247.126 147.126 C 245.892 145.892,239.087 144.846,239.800 146.000 C 239.936 146.220,239.767 146.400,239.424 146.400 C 239.081 146.400,238.800 146.220,238.800 146.000 C 238.800 145.402,234.509 145.496,234.264 146.100 C 234.107 146.486,233.972 146.473,233.673 146.045 C 233.076 145.192,227.685 145.641,225.950 146.688 C 225.207 147.136,223.950 147.618,223.155 147.759 C 221.503 148.052,220.008 149.361,220.876 149.755 C 221.164 149.886,221.015 149.899,220.546 149.784 C 219.641 149.563,217.026 151.395,217.395 151.991 C 217.627 152.367,216.623 153.290,216.316 152.983 C 216.050 152.717,213.600 155.484,213.600 156.051 C 213.600 156.283,213.240 156.931,212.800 157.491 C 211.970 158.547,211.700 159.833,212.400 159.400 C 212.620 159.264,212.800 159.310,212.800 159.503 C 212.800 159.695,213.565 160.272,214.500 160.784 C 215.435 161.297,216.604 162.080,217.097 162.525 C 217.715 163.083,218.709 163.381,220.297 163.488 C 223.643 163.711,224.161 163.870,225.321 165.031 C 225.897 165.606,226.600 165.993,226.884 165.890 C 227.168 165.787,227.940 166.102,228.600 166.592 C 232.110 169.194,234.185 169.443,236.162 167.500 C 236.889 166.785,237.397 165.950,237.290 165.644 C 237.184 165.339,237.277 165.200,237.498 165.337 C 237.729 165.479,238.006 164.923,238.148 164.032 C 238.353 162.752,238.615 162.403,239.638 162.047 C 241.015 161.567,242.991 162.188,242.011 162.793 C 240.609 163.660,241.966 165.464,245.321 167.194 C 250.755 169.997,250.169 167.256,250.400 190.950 C 250.558 207.128,250.712 211.613,251.128 212.113 C 251.495 212.556,251.538 212.969,251.269 213.474 C 250.881 214.203,250.633 216.259,250.742 217.858 C 250.774 218.329,251.320 219.272,251.955 219.952 C 252.590 220.632,253.214 221.461,253.342 221.794 C 253.617 222.510,261.200 222.709,261.200 222.000 C 261.200 221.780,261.515 221.603,261.900 221.606 C 262.503 221.611,262.517 221.670,262.000 222.027 C 261.580 222.317,263.199 222.375,267.400 222.221 C 271.233 222.080,273.111 222.134,272.600 222.372 C 272.072 222.617,274.111 222.740,278.600 222.732 C 282.943 222.725,285.039 222.595,284.400 222.374 C 283.784 222.161,285.089 222.107,287.800 222.234 C 292.216 222.441,295.349 221.612,294.619 220.431 C 294.498 220.235,294.745 220.165,295.167 220.275 C 295.855 220.455,299.487 217.716,299.941 216.676 C 300.019 216.498,300.525 215.875,301.066 215.291 C 301.629 214.683,301.969 213.925,301.862 213.515 C 301.759 213.121,301.818 212.887,301.992 212.995 C 302.426 213.263,305.875 208.084,306.234 206.627 C 306.393 205.982,306.958 204.813,307.490 204.030 C 308.059 203.191,308.385 202.235,308.284 201.703 C 308.189 201.206,308.251 200.800,308.423 200.800 C 309.133 200.800,310.481 197.934,310.312 196.783 C 310.192 195.961,310.307 195.600,310.690 195.600 C 311.443 195.600,312.508 192.915,312.304 191.529 C 312.213 190.908,312.282 190.400,312.457 190.400 C 312.632 190.400,312.662 190.085,312.524 189.700 C 312.386 189.315,312.420 189.133,312.599 189.297 C 312.990 189.651,314.003 188.891,313.994 188.251 C 313.991 188.003,313.810 188.070,313.593 188.400 C 313.279 188.876,313.223 188.816,313.322 188.110 C 313.390 187.621,313.600 187.081,313.787 186.910 C 313.975 186.740,313.999 186.825,313.841 187.100 C 313.682 187.375,313.743 187.600,313.976 187.600 C 314.209 187.600,314.400 187.240,314.400 186.800 C 314.400 186.360,314.175 185.997,313.900 185.994 C 313.561 185.990,313.590 185.868,313.988 185.616 C 314.312 185.411,314.466 185.133,314.331 184.998 C 314.196 184.862,314.516 184.321,315.042 183.794 C 315.963 182.874,316.389 181.713,315.635 182.178 C 315.183 182.458,315.316 181.339,315.786 180.912 C 315.974 180.740,315.999 180.825,315.841 181.100 C 315.681 181.378,315.759 181.600,316.017 181.600 C 316.321 181.600,316.431 180.982,316.338 179.805 C 316.241 178.592,316.364 177.946,316.716 177.811 C 317.494 177.512,318.493 174.818,318.304 173.529 C 318.213 172.908,318.282 172.400,318.457 172.400 C 318.632 172.400,318.678 172.148,318.560 171.840 C 318.442 171.533,318.566 171.145,318.835 170.979 C 319.147 170.785,319.221 170.843,319.038 171.138 C 318.881 171.392,318.948 171.600,319.186 171.600 C 319.686 171.600,320.400 169.923,320.400 168.750 C 320.400 168.244,320.218 168.045,319.900 168.206 C 319.625 168.345,319.686 168.221,320.035 167.930 C 320.384 167.638,320.596 167.130,320.505 166.800 C 320.357 166.267,320.387 166.267,320.770 166.800 C 321.349 167.607,322.088 166.605,321.867 165.312 C 321.783 164.819,321.885 164.529,322.096 164.659 C 322.306 164.789,322.414 164.567,322.337 164.167 C 322.260 163.767,322.595 163.041,323.082 162.554 C 323.569 162.067,324.093 161.170,324.245 160.561 C 324.398 159.952,324.946 158.831,325.462 158.071 C 325.978 157.311,326.400 156.483,326.400 156.233 C 326.400 155.983,326.778 155.455,327.239 155.059 C 327.757 154.616,328.001 154.046,327.876 153.570 C 327.765 153.146,327.838 152.900,328.037 153.023 C 328.237 153.146,328.400 152.986,328.400 152.666 C 328.400 151.089,329.530 151.736,329.662 153.389 C 329.738 154.343,329.686 155.053,329.547 154.967 C 329.008 154.634,327.529 158.937,327.671 160.425 C 327.750 161.254,327.693 161.857,327.544 161.765 C 326.939 161.391,325.553 165.172,325.676 166.862 C 325.775 168.226,325.610 168.761,324.859 169.508 C 324.272 170.093,323.995 170.737,324.122 171.223 C 324.234 171.650,324.162 172.000,323.963 172.000 C 323.763 172.000,323.597 173.215,323.594 174.700 C 323.590 176.405,323.458 177.196,323.237 176.846 C 322.792 176.144,321.819 177.752,322.157 178.631 C 322.277 178.944,322.201 179.200,321.987 179.200 C 321.420 179.200,321.514 182.544,322.100 183.201 C 322.520 183.672,322.496 183.683,321.949 183.273 C 321.394 182.856,321.199 182.993,320.621 184.212 C 319.625 186.312,319.362 188.404,320.041 188.834 C 320.500 189.124,320.503 189.189,320.057 189.194 C 319.759 189.197,319.606 189.438,319.717 189.729 C 319.829 190.019,319.552 190.488,319.101 190.769 C 318.437 191.184,318.388 191.347,318.841 191.634 C 319.292 191.919,319.268 191.989,318.718 191.994 C 317.908 192.001,317.380 194.198,317.747 196.034 C 317.881 196.705,317.829 197.142,317.630 197.019 C 316.937 196.590,315.513 200.314,315.660 202.170 C 315.737 203.134,315.681 203.850,315.536 203.761 C 314.982 203.418,313.516 207.232,313.676 208.602 C 313.781 209.504,313.652 210.048,313.300 210.183 C 312.482 210.497,311.501 213.205,311.751 214.457 C 311.874 215.068,311.802 215.675,311.591 215.805 C 311.375 215.939,311.309 215.728,311.438 215.321 C 311.607 214.790,311.440 214.858,310.807 215.577 C 310.334 216.114,310.032 216.880,310.136 217.278 C 310.253 217.726,310.162 217.900,309.895 217.735 C 309.625 217.568,309.557 217.710,309.712 218.114 C 309.886 218.568,309.787 218.693,309.377 218.536 C 308.987 218.386,308.606 218.766,308.221 219.688 C 307.905 220.445,307.358 221.303,307.005 221.596 C 306.652 221.889,306.455 222.367,306.567 222.659 C 306.679 222.951,306.643 223.149,306.486 223.098 C 306.038 222.954,303.600 225.273,303.600 225.843 C 303.600 226.123,303.392 226.481,303.138 226.638 C 302.852 226.815,302.785 226.748,302.962 226.462 C 303.398 225.756,302.843 225.910,301.663 226.821 C 299.856 228.217,297.726 229.507,296.741 229.802 C 295.319 230.227,293.947 231.190,294.194 231.590 C 294.314 231.785,294.230 232.058,294.007 232.196 C 293.783 232.334,293.600 232.257,293.600 232.024 C 293.600 231.791,293.015 231.601,292.300 231.602 C 290.467 231.605,287.933 232.369,288.219 232.832 C 288.351 233.045,288.311 233.194,288.130 233.163 C 287.327 233.023,286.369 233.226,286.538 233.500 C 286.640 233.665,284.311 233.800,281.362 233.800 C 278.413 233.800,276.000 233.686,276.000 233.546 C 276.000 233.406,275.344 232.980,274.543 232.600 C 272.763 231.755,264.497 231.185,264.963 231.939 C 265.119 232.193,265.057 232.400,264.824 232.400 C 264.591 232.400,264.400 232.195,264.400 231.944 C 264.400 231.630,263.656 231.556,262.000 231.707 C 260.680 231.826,259.600 231.789,259.600 231.623 C 259.600 231.159,256.803 230.072,254.849 229.777 C 253.613 229.590,253.179 229.643,253.373 229.956 C 253.524 230.200,253.484 230.400,253.285 230.400 C 252.422 230.400,251.095 232.090,250.749 233.627 C 250.374 235.298,251.497 238.800,252.409 238.800 C 252.594 238.800,252.860 239.160,253.000 239.600 C 253.296 240.533,256.395 240.806,256.406 239.900 C 256.411 239.529,256.500 239.539,256.753 239.938 C 257.113 240.505,259.600 238.483,259.600 237.624 C 259.600 236.925,261.893 236.000,263.626 236.000 C 265.472 236.000,266.872 237.199,269.052 240.648 C 270.177 242.428,273.189 243.335,273.206 241.900 C 273.210 241.590,273.324 241.552,273.506 241.800 C 273.684 242.043,276.829 242.200,281.500 242.200 C 286.363 242.200,289.202 242.053,289.206 241.800 C 289.210 241.580,289.372 241.652,289.567 241.960 C 290.055 242.732,293.674 242.283,295.114 241.273 C 295.711 240.854,297.010 240.422,298.000 240.314 C 299.796 240.117,303.008 238.341,302.495 237.828 C 302.346 237.680,302.513 237.668,302.866 237.804 C 303.782 238.155,308.129 235.312,307.837 234.552 C 307.710 234.222,307.828 233.995,308.106 234.031 C 309.071 234.155,309.600 233.994,309.600 233.576 C 309.600 233.343,309.392 233.281,309.138 233.438 C 308.850 233.616,308.785 233.548,308.966 233.255 C 309.125 232.998,309.410 232.883,309.600 233.000 C 309.790 233.117,310.089 232.985,310.266 232.707 C 310.589 232.198,310.657 231.979,310.750 231.157 C 310.778 230.914,311.048 230.810,311.352 230.926 C 312.048 231.193,314.585 228.623,314.215 228.025 C 314.064 227.780,314.089 227.606,314.270 227.637 C 315.148 227.790,315.562 227.450,316.770 225.586 C 317.491 224.474,317.971 223.301,317.842 222.965 C 317.691 222.572,317.772 222.459,318.073 222.645 C 318.385 222.838,318.450 222.707,318.273 222.245 C 318.128 221.867,318.163 221.654,318.351 221.770 C 319.037 222.194,320.163 220.356,320.181 218.780 C 320.192 217.856,320.393 217.202,320.667 217.201 C 321.288 217.200,322.505 213.954,322.335 212.752 C 322.261 212.228,322.505 211.495,322.877 211.123 C 323.970 210.030,324.678 207.221,323.973 206.775 C 323.513 206.484,323.507 206.411,323.943 206.406 C 324.260 206.403,324.390 206.151,324.255 205.800 C 324.129 205.470,324.221 205.200,324.462 205.200 C 324.747 205.200,324.723 204.989,324.392 204.591 C 323.970 204.081,323.995 204.023,324.546 204.234 C 325.033 204.421,325.360 204.115,325.802 203.056 C 326.531 201.313,326.573 200.002,325.900 199.994 C 325.511 199.989,325.514 199.916,325.914 199.662 C 326.221 199.467,326.314 199.041,326.146 198.602 C 325.962 198.124,326.014 197.962,326.296 198.136 C 326.804 198.449,328.400 195.368,328.400 194.074 C 328.400 193.593,328.175 193.197,327.900 193.194 C 327.511 193.189,327.514 193.116,327.914 192.862 C 328.197 192.682,328.312 192.236,328.171 191.868 C 328.030 191.501,328.098 191.200,328.322 191.200 C 328.858 191.200,330.400 187.990,330.400 186.874 C 330.400 186.393,330.175 185.997,329.900 185.994 C 329.543 185.989,329.559 185.887,329.958 185.634 C 330.265 185.440,330.406 184.993,330.271 184.640 C 330.136 184.288,330.194 184.000,330.400 184.000 C 330.606 184.000,330.671 183.728,330.543 183.395 C 330.380 182.971,330.495 182.861,330.928 183.028 C 331.383 183.202,331.656 182.862,331.970 181.732 C 332.532 179.708,332.510 178.801,331.900 178.794 C 331.511 178.789,331.514 178.716,331.914 178.462 C 332.197 178.282,332.312 177.836,332.171 177.468 C 332.030 177.101,332.098 176.800,332.322 176.800 C 332.858 176.800,334.400 173.590,334.400 172.474 C 334.400 171.993,334.175 171.597,333.900 171.594 C 333.511 171.589,333.514 171.516,333.914 171.262 C 334.196 171.083,334.317 170.649,334.183 170.299 C 334.028 169.897,334.234 169.503,334.737 169.234 C 335.741 168.697,336.531 166.371,336.321 164.571 C 336.233 163.817,336.288 163.200,336.445 163.200 C 337.143 163.200,338.476 159.516,338.330 157.989 C 338.247 157.115,338.329 156.400,338.513 156.400 C 338.697 156.400,338.736 156.220,338.600 156.000 C 338.464 155.780,338.537 155.600,338.762 155.600 C 339.496 155.600,340.109 154.013,339.608 153.410 C 339.277 153.010,339.285 152.794,339.642 152.574 C 339.947 152.385,340.019 152.445,339.838 152.738 C 339.681 152.992,339.743 153.200,339.976 153.200 C 340.575 153.200,340.506 150.909,339.900 150.665 C 339.502 150.504,339.503 150.457,339.903 150.432 C 340.272 150.408,340.351 149.784,340.197 148.100 C 340.049 146.489,340.100 146.040,340.365 146.600 C 340.647 147.195,340.751 146.702,340.772 144.676 C 340.792 142.712,340.671 142.032,340.338 142.239 C 340.007 142.443,339.947 142.164,340.128 141.262 C 340.301 140.397,340.226 139.998,339.890 139.994 C 339.543 139.990,339.558 139.887,339.943 139.644 C 340.675 139.180,340.170 136.919,339.220 136.411 C 338.827 136.200,338.410 136.124,338.293 136.241 C 338.176 136.358,338.107 136.144,338.140 135.767 C 338.269 134.293,334.090 132.001,331.274 132.001 C 328.781 132.000,326.989 132.534,327.377 133.162 C 327.681 133.655,325.516 133.152,324.503 132.494 C 324.010 132.174,323.335 132.016,323.003 132.143 C 322.671 132.271,322.400 132.177,322.400 131.936 C 322.400 131.120,316.255 131.741,315.064 132.678 C 314.494 133.127,314.095 133.563,314.178 133.647 C 314.261 133.731,313.715 133.813,312.965 133.830 C 311.510 133.862,309.431 135.403,309.874 136.120 C 310.011 136.342,309.932 136.405,309.698 136.261 C 309.157 135.926,308.000 136.356,308.000 136.892 C 308.000 137.115,308.315 137.051,308.700 136.749 C 309.333 136.252,309.348 136.266,308.855 136.896 C 308.555 137.278,308.174 137.508,308.009 137.406 C 307.672 137.197,304.749 140.216,305.024 140.490 C 305.121 140.587,304.975 140.667,304.700 140.667 C 304.353 140.667,304.244 140.121,304.344 138.883 C 304.444 137.647,304.352 137.182,304.044 137.373 C 303.800 137.524,303.600 137.457,303.600 137.224 C 303.600 136.991,303.780 136.800,304.000 136.800 C 304.600 136.800,304.482 133.770,303.820 132.187 C 303.263 130.854,302.464 130.148,302.953 131.421 C 303.100 131.804,303.026 131.940,302.761 131.776 C 302.524 131.629,302.419 131.170,302.528 130.755 C 302.636 130.340,302.607 130.000,302.463 130.000 C 302.318 130.000,302.200 129.029,302.200 127.842 C 302.200 125.703,301.183 123.716,300.351 124.230 C 300.163 124.346,300.128 124.133,300.273 123.755 C 300.441 123.317,300.380 123.165,300.105 123.335 C 299.837 123.501,299.747 123.324,299.867 122.866 C 300.097 121.986,298.123 119.477,297.502 119.861 C 297.268 120.005,297.190 119.940,297.329 119.715 C 297.721 119.080,296.140 117.890,294.840 117.843 C 294.196 117.819,293.698 117.626,293.734 117.413 C 294.029 115.678,288.188 115.033,287.809 116.759 M321.660 144.167 C 321.737 145.138,321.643 145.903,321.450 145.867 C 321.046 145.790,318.002 149.987,318.001 150.622 C 318.000 150.855,317.542 151.665,316.981 152.422 C 316.409 153.196,316.046 154.124,316.154 154.540 C 316.260 154.946,316.239 155.172,316.109 155.042 C 315.602 154.535,313.466 159.045,313.732 160.061 C 313.838 160.468,313.770 160.705,313.580 160.588 C 313.136 160.314,312.138 161.856,311.760 163.400 C 311.599 164.060,311.047 165.392,310.533 166.360 C 310.020 167.327,309.600 168.550,309.600 169.076 C 309.600 169.602,309.221 170.545,308.758 171.171 C 308.181 171.952,307.899 172.971,307.858 174.422 C 307.815 176.003,307.580 176.757,306.927 177.422 C 306.040 178.324,305.412 180.527,305.665 181.845 C 305.742 182.243,305.407 182.998,304.921 183.523 C 304.420 184.063,303.919 185.282,303.763 186.338 C 303.611 187.362,303.158 188.623,302.754 189.141 C 301.730 190.454,301.363 192.728,302.008 193.764 C 302.496 194.547,302.482 194.562,301.789 194.000 C 301.111 193.449,301.075 193.465,301.346 194.188 C 301.509 194.621,301.514 194.848,301.358 194.691 C 301.032 194.365,300.000 195.111,300.000 195.673 C 300.000 195.879,300.225 195.933,300.500 195.794 C 300.775 195.655,300.685 195.799,300.300 196.114 C 299.915 196.430,299.600 196.961,299.600 197.295 C 299.600 197.629,299.339 198.118,299.020 198.383 C 298.702 198.648,298.229 199.525,297.970 200.332 C 297.711 201.139,297.254 202.082,296.954 202.426 C 296.655 202.770,296.205 203.640,295.955 204.358 C 295.704 205.077,295.117 206.076,294.650 206.578 C 294.182 207.081,293.268 208.241,292.617 209.155 C 291.405 210.858,289.705 212.238,289.308 211.842 C 289.186 211.719,289.325 211.331,289.617 210.979 C 290.061 210.444,290.054 210.275,289.574 209.953 C 289.082 209.622,289.086 209.578,289.600 209.646 C 290.735 209.797,291.562 209.126,292.042 207.665 C 292.306 206.859,292.848 205.970,293.245 205.689 C 293.643 205.407,294.093 204.507,294.247 203.689 C 294.400 202.870,294.882 201.718,295.317 201.129 C 295.760 200.528,295.998 199.772,295.858 199.408 C 295.697 198.987,295.767 198.856,296.058 199.036 C 296.364 199.225,296.453 198.940,296.336 198.144 C 296.214 197.311,296.428 196.692,297.081 195.996 C 298.097 194.914,298.582 193.024,298.314 191.197 C 298.218 190.539,298.309 190.000,298.518 190.000 C 298.727 190.000,298.651 189.696,298.349 189.325 C 297.867 188.732,297.887 188.683,298.522 188.921 C 299.675 189.353,300.541 186.798,300.293 183.701 C 300.182 182.325,300.229 181.200,300.397 181.200 C 300.564 181.200,301.084 180.312,301.551 179.226 C 302.498 177.024,302.699 174.004,301.900 173.994 C 301.528 173.989,301.538 173.900,301.938 173.647 C 302.347 173.388,302.412 172.650,302.211 170.553 C 302.021 168.578,302.065 167.970,302.367 168.400 C 302.686 168.856,302.789 168.538,302.794 167.080 C 302.797 166.024,303.051 164.674,303.359 164.080 C 303.666 163.485,304.047 161.919,304.205 160.600 C 304.389 159.069,304.784 157.882,305.297 157.320 C 305.760 156.814,305.997 156.169,305.855 155.800 C 305.720 155.447,305.768 155.257,305.963 155.377 C 306.345 155.613,306.940 154.571,306.978 153.600 C 306.991 153.270,307.218 153.000,307.484 153.000 C 308.174 153.000,310.057 150.324,309.813 149.690 C 309.701 149.398,309.776 149.262,309.980 149.387 C 310.183 149.513,310.895 148.824,311.561 147.856 C 313.984 144.334,316.689 142.421,319.260 142.410 L 321.519 142.400 321.660 144.167 M330.600 148.000 C 330.259 148.660,329.889 149.200,329.779 149.200 C 329.669 149.200,329.859 148.660,330.200 148.000 C 330.541 147.340,330.911 146.800,331.021 146.800 C 331.131 146.800,330.941 147.340,330.600 148.000 " stroke="none" fill="#74d34c" fill-rule="evenodd"></path><path id="path2" d="M254.130 67.766 C 250.309 68.519,249.432 69.751,251.400 71.600 C 251.950 72.117,252.400 72.708,252.400 72.914 C 252.400 73.120,253.090 74.124,253.934 75.144 C 255.907 77.532,258.575 81.458,260.600 84.959 C 261.480 86.480,262.470 87.848,262.800 87.999 C 266.493 89.693,267.233 90.194,267.474 91.159 C 267.616 91.732,268.243 93.280,268.866 94.600 C 270.775 98.642,270.210 102.395,267.419 104.224 C 265.751 105.318,265.957 107.379,267.700 107.031 C 272.052 106.163,273.547 106.249,273.832 107.387 C 274.206 108.876,273.732 112.469,273.111 112.864 C 272.830 113.042,272.788 113.191,273.018 113.194 C 273.486 113.201,276.408 116.888,276.386 117.444 C 276.368 117.899,271.564 120.192,270.900 120.062 C 270.625 120.009,270.400 120.153,270.400 120.382 C 270.400 120.612,270.265 120.779,270.100 120.753 C 269.306 120.627,268.777 120.840,268.997 121.195 C 269.132 121.413,269.007 121.496,268.721 121.381 C 268.220 121.179,266.359 117.547,265.818 115.719 C 265.675 115.234,265.072 114.592,264.479 114.292 C 262.571 113.328,261.421 112.618,260.514 111.843 C 260.026 111.427,259.082 111.067,258.415 111.043 C 257.700 111.018,257.201 110.783,257.201 110.473 C 257.200 110.118,256.774 110.249,255.900 110.873 C 254.937 111.559,254.055 111.800,252.501 111.800 C 250.493 111.800,249.831 112.104,250.900 112.535 C 251.175 112.646,251.008 112.751,250.529 112.768 C 250.049 112.786,249.411 112.554,249.110 112.253 C 248.809 111.952,248.188 111.586,247.729 111.441 C 246.206 110.958,246.133 107.468,247.637 107.074 C 248.391 106.877,248.738 105.600,248.037 105.600 C 247.838 105.600,247.769 105.240,247.884 104.800 C 247.999 104.360,247.898 104.000,247.659 104.000 C 247.420 104.000,247.330 103.728,247.457 103.395 C 247.585 103.062,247.494 102.555,247.256 102.268 C 247.018 101.980,246.623 100.768,246.379 99.573 C 246.135 98.378,245.590 96.912,245.168 96.316 C 243.527 94.001,244.707 93.224,247.096 95.046 C 248.188 95.879,248.563 95.989,248.934 95.587 C 249.289 95.203,249.288 95.146,248.928 95.348 C 248.668 95.494,248.324 95.385,248.164 95.107 C 248.003 94.828,248.004 94.719,248.166 94.863 C 248.328 95.008,248.977 94.979,249.609 94.797 C 250.946 94.414,251.553 94.923,251.687 96.540 C 251.735 97.123,251.877 97.600,252.002 97.600 C 252.126 97.600,252.229 97.960,252.229 98.400 C 252.229 98.840,251.997 99.200,251.714 99.200 C 251.431 99.200,251.200 98.930,251.200 98.600 C 251.200 98.270,250.998 98.000,250.751 98.000 C 250.469 98.000,250.532 98.334,250.919 98.900 C 251.258 99.395,251.730 99.755,251.968 99.700 C 252.206 99.645,252.400 99.780,252.400 100.000 C 252.400 100.220,252.805 100.397,253.300 100.394 C 255.105 100.382,255.061 100.534,255.853 91.600 C 256.054 89.333,255.976 88.877,255.242 88.039 C 254.779 87.510,254.400 86.790,254.400 86.437 C 254.400 85.259,248.519 77.436,246.975 76.561 C 246.549 76.319,245.984 75.695,245.719 75.173 C 244.543 72.852,243.019 73.353,239.710 77.148 C 237.325 79.882,235.996 80.818,233.800 81.310 C 233.142 81.458,232.221 82.931,232.178 83.903 C 232.156 84.402,231.806 85.054,231.400 85.350 C 230.588 85.944,232.154 89.707,234.167 92.000 C 236.937 95.155,239.793 100.248,240.334 103.000 C 242.261 112.795,243.229 114.588,249.478 119.937 C 252.243 122.303,253.295 122.817,253.777 122.038 C 253.900 121.838,254.352 121.767,254.781 121.879 C 255.297 122.014,255.929 121.696,256.646 120.942 C 257.243 120.314,257.608 120.013,257.459 120.273 C 257.308 120.534,257.560 121.007,258.021 121.330 C 258.584 121.724,258.691 121.970,258.349 122.084 C 257.942 122.219,257.945 122.503,258.367 123.521 C 258.656 124.219,259.020 124.711,259.176 124.615 C 259.332 124.519,259.501 125.365,259.553 126.496 C 259.604 127.626,259.727 128.682,259.825 128.841 C 259.923 129.000,260.092 130.164,260.199 131.429 C 260.381 133.561,260.800 134.984,260.800 133.467 C 260.800 133.100,260.935 132.821,261.100 132.847 C 261.780 132.955,262.373 132.772,262.872 132.300 C 268.941 126.565,275.989 123.471,283.200 123.378 C 285.950 123.342,288.326 123.288,288.480 123.257 C 288.633 123.225,288.229 122.132,287.582 120.827 C 286.397 118.438,286.377 117.638,287.471 116.357 C 288.106 115.614,287.214 114.497,286.391 115.006 C 286.140 115.161,285.986 115.046,286.036 114.740 C 286.159 114.002,285.600 112.800,285.134 112.800 C 284.924 112.800,284.888 113.025,285.053 113.300 C 285.271 113.663,285.174 113.655,284.701 113.271 C 284.341 112.980,284.139 112.503,284.251 112.211 C 284.363 111.920,284.262 111.562,284.027 111.417 C 283.220 110.918,283.526 109.656,284.400 109.884 C 284.840 109.999,285.200 109.898,285.200 109.659 C 285.200 109.420,285.449 109.321,285.753 109.437 C 286.788 109.834,290.523 104.571,289.608 104.005 C 289.267 103.794,289.312 103.643,289.766 103.468 C 290.295 103.266,290.396 102.475,290.377 98.713 C 290.341 91.504,289.375 90.007,284.610 89.776 C 283.141 89.705,281.647 89.411,281.292 89.123 C 280.814 88.736,280.725 88.730,280.947 89.100 C 281.116 89.381,281.051 89.600,280.800 89.600 C 280.554 89.600,280.480 89.825,280.635 90.100 C 280.840 90.462,280.789 90.482,280.452 90.173 C 279.685 89.470,279.165 87.188,279.722 86.974 C 280.733 86.584,280.288 80.873,279.194 80.196 C 278.982 80.065,278.909 80.220,279.032 80.539 C 279.154 80.858,279.062 81.238,278.827 81.383 C 278.592 81.528,278.400 81.446,278.400 81.200 C 278.400 80.954,278.220 80.864,278.000 81.000 C 277.366 81.392,277.536 80.522,278.229 79.829 C 278.592 79.465,278.666 79.200,278.405 79.200 C 278.156 79.200,278.072 79.008,278.217 78.773 C 278.753 77.904,274.474 71.735,273.743 72.324 C 273.554 72.476,273.535 72.435,273.701 72.232 C 274.046 71.811,272.848 70.323,272.392 70.605 C 272.226 70.707,271.845 70.478,271.545 70.096 C 271.042 69.453,271.061 69.445,271.800 69.988 C 272.391 70.422,272.346 70.291,271.630 69.488 C 270.442 68.155,270.464 68.154,270.720 69.500 C 270.915 70.528,270.880 70.561,270.188 70.000 C 269.780 69.670,269.572 69.610,269.726 69.866 C 270.029 70.372,269.221 70.159,265.361 68.718 C 261.560 67.299,258.019 66.999,254.130 67.766 M124.800 167.600 C 124.472 168.213,124.496 168.400,124.901 168.400 C 125.192 168.400,125.457 168.040,125.490 167.600 C 125.523 167.160,125.478 166.800,125.389 166.800 C 125.301 166.800,125.035 167.160,124.800 167.600 M243.697 248.676 C 243.644 288.538,243.735 321.236,243.900 321.338 C 244.171 321.506,244.170 272.067,243.897 202.400 C 243.840 187.990,243.750 208.814,243.697 248.676 M252.400 225.567 C 252.400 227.989,252.560 229.600,252.800 229.600 C 253.037 229.600,253.200 228.133,253.200 226.000 C 253.200 224.020,253.213 222.270,253.230 222.110 C 253.247 221.950,253.067 221.755,252.830 221.677 C 252.542 221.581,252.400 222.868,252.400 225.567 M252.400 253.424 C 252.400 262.004,252.536 266.363,252.800 266.200 C 253.053 266.044,253.200 261.263,253.200 253.176 C 253.200 244.925,253.058 240.400,252.800 240.400 C 252.542 240.400,252.400 245.008,252.400 253.424 M256.586 248.381 C 255.446 248.843,254.618 249.867,255.384 249.867 C 255.698 249.867,255.921 249.676,255.878 249.443 C 255.835 249.210,256.205 248.957,256.700 248.882 C 257.195 248.806,257.600 248.577,257.600 248.372 C 257.600 248.167,257.555 248.011,257.500 248.025 C 257.445 248.039,257.034 248.199,256.586 248.381 M254.165 259.000 C 254.166 262.960,254.226 264.526,254.298 262.480 C 254.371 260.434,254.371 257.194,254.298 255.280 C 254.224 253.366,254.165 255.040,254.165 259.000 M272.162 258.200 C 272.162 261.720,272.224 263.106,272.298 261.281 C 272.372 259.456,272.372 256.576,272.297 254.881 C 272.222 253.186,272.161 254.680,272.162 258.200 M286.700 263.893 C 287.635 263.977,289.165 263.977,290.100 263.893 C 291.035 263.809,290.270 263.740,288.400 263.740 C 286.530 263.740,285.765 263.809,286.700 263.893 M276.000 264.331 C 276.000 264.513,276.540 264.582,277.200 264.485 C 277.860 264.388,278.400 264.240,278.400 264.155 C 278.400 264.070,277.860 264.000,277.200 264.000 C 276.540 264.000,276.000 264.149,276.000 264.331 M310.105 271.887 C 310.714 271.979,311.614 271.977,312.105 271.882 C 312.597 271.787,312.100 271.711,311.000 271.714 C 309.900 271.717,309.497 271.795,310.105 271.887 M316.073 273.800 C 316.323 274.350,316.801 274.800,317.134 274.800 C 317.586 274.800,317.501 274.546,316.800 273.800 C 316.283 273.250,315.806 272.800,315.739 272.800 C 315.672 272.800,315.822 273.250,316.073 273.800 M284.228 278.355 C 284.107 278.550,284.322 278.955,284.704 279.255 C 285.328 279.743,285.345 279.730,284.874 279.127 C 284.407 278.530,284.497 278.436,285.674 278.291 L 287.000 278.128 285.724 278.064 C 285.022 278.029,284.349 278.160,284.228 278.355 M302.093 280.000 C 302.093 280.770,302.175 281.085,302.276 280.700 C 302.376 280.315,302.376 279.685,302.276 279.300 C 302.175 278.915,302.093 279.230,302.093 280.000 M317.551 284.492 C 316.934 285.644,316.162 286.410,315.848 286.181 C 315.711 286.081,315.688 286.118,315.797 286.263 C 315.905 286.408,315.775 286.813,315.509 287.163 C 315.242 287.513,315.531 287.350,316.150 286.800 C 317.196 285.871,318.668 283.600,318.224 283.600 C 318.116 283.600,317.813 284.001,317.551 284.492 M287.200 296.243 C 287.200 296.623,287.317 296.816,287.460 296.673 C 287.604 296.530,287.974 296.725,288.283 297.106 C 288.789 297.732,288.803 297.714,288.420 296.922 C 287.854 295.751,287.200 295.387,287.200 296.243 M252.862 300.126 C 252.577 300.469,252.386 304.424,252.313 311.526 C 252.217 320.717,252.337 323.015,252.875 322.300 C 252.959 322.189,253.430 299.599,253.349 299.600 C 253.321 299.600,253.102 299.836,252.862 300.126 M312.365 301.726 C 312.544 301.905,313.481 301.991,314.446 301.918 L 316.200 301.785 314.119 301.593 C 312.975 301.487,312.185 301.547,312.365 301.726 M305.214 308.374 C 304.655 309.419,304.692 309.616,305.398 309.346 C 305.726 309.219,305.883 308.935,305.746 308.713 C 305.610 308.492,305.746 308.153,306.049 307.961 C 306.426 307.722,306.447 307.610,306.114 307.606 C 305.847 307.603,305.442 307.948,305.214 308.374 M322.267 308.571 C 322.146 308.885,322.307 309.357,322.624 309.620 C 323.032 309.959,323.200 309.967,323.200 309.649 C 323.200 309.402,323.026 309.200,322.813 309.200 C 322.599 309.200,322.529 308.930,322.655 308.600 C 322.782 308.270,322.796 308.000,322.686 308.000 C 322.576 308.000,322.387 308.257,322.267 308.571 M131.506 324.038 C 130.685 324.897,130.155 325.600,130.328 325.600 C 130.752 325.600,133.391 322.857,133.173 322.644 C 133.078 322.551,132.328 323.178,131.506 324.038 " stroke="none" fill="#7c7c7c" fill-rule="evenodd"></path><path id="path3" d="M155.700 17.887 C 156.305 17.978,157.295 17.978,157.900 17.887 C 158.505 17.795,158.010 17.720,156.800 17.720 C 155.590 17.720,155.095 17.795,155.700 17.887 M182.900 17.887 C 183.505 17.978,184.495 17.978,185.100 17.887 C 185.705 17.795,185.210 17.720,184.000 17.720 C 182.790 17.720,182.295 17.795,182.900 17.887 M149.600 19.000 C 149.050 19.314,148.780 19.572,149.000 19.572 C 149.220 19.572,149.850 19.314,150.400 19.000 C 150.950 18.686,151.220 18.428,151.000 18.428 C 150.780 18.428,150.150 18.686,149.600 19.000 M190.400 19.000 C 190.950 19.314,191.580 19.572,191.800 19.572 C 192.020 19.572,191.750 19.314,191.200 19.000 C 190.650 18.686,190.020 18.428,189.800 18.428 C 189.580 18.428,189.850 18.686,190.400 19.000 M122.837 27.030 C 121.867 27.563,121.327 27.994,121.637 27.988 C 121.947 27.981,122.920 27.532,123.800 26.990 C 125.849 25.727,125.150 25.757,122.837 27.030 M229.127 33.000 C 229.781 33.550,230.438 34.000,230.588 34.000 C 230.739 34.000,230.327 33.550,229.673 33.000 C 229.019 32.450,228.362 32.000,228.212 32.000 C 228.061 32.000,228.473 32.450,229.127 33.000 M107.600 35.000 C 106.855 35.550,106.415 35.999,106.622 35.998 C 107.028 35.996,109.549 34.038,109.178 34.014 C 109.055 34.006,108.345 34.450,107.600 35.000 M234.800 36.159 C 234.800 36.261,235.385 36.756,236.100 37.257 C 237.022 37.904,237.235 37.964,236.833 37.463 C 236.260 36.750,234.800 35.813,234.800 36.159 M101.503 38.900 C 100.985 39.395,100.840 39.600,101.180 39.356 C 101.521 39.112,102.160 38.712,102.600 38.468 C 103.040 38.224,103.185 38.019,102.922 38.012 C 102.660 38.005,102.021 38.405,101.503 38.900 M243.000 41.865 C 244.022 42.833,246.533 44.471,245.927 43.774 C 245.557 43.348,244.657 42.659,243.927 42.243 C 243.197 41.827,242.780 41.657,243.000 41.865 M95.970 43.100 L 95.000 44.200 96.200 43.200 C 96.860 42.650,97.475 42.155,97.567 42.100 C 97.658 42.045,97.555 42.000,97.336 42.000 C 97.118 42.000,96.503 42.495,95.970 43.100 M91.600 46.440 L 89.400 48.470 91.700 46.587 C 93.719 44.933,94.268 44.388,93.900 44.404 C 93.845 44.407,92.810 45.323,91.600 46.440 M252.400 49.566 C 252.400 49.805,252.573 50.000,252.785 50.000 C 252.997 50.000,254.392 51.117,255.885 52.482 C 257.523 53.979,257.965 54.283,257.000 53.248 C 254.945 51.045,252.400 49.007,252.400 49.566 M80.388 56.683 C 78.243 58.907,78.144 59.062,79.811 57.583 C 81.625 55.975,83.442 54.000,83.107 54.000 C 83.035 54.000,81.812 55.208,80.388 56.683 M261.199 57.500 C 261.722 58.215,262.213 58.800,262.289 58.800 C 262.593 58.800,261.601 57.300,260.945 56.767 C 260.513 56.416,260.610 56.696,261.199 57.500 M156.500 58.276 C 156.885 58.376,157.515 58.376,157.900 58.276 C 158.285 58.175,157.970 58.093,157.200 58.093 C 156.430 58.093,156.115 58.175,156.500 58.276 M182.900 58.276 C 183.285 58.376,183.915 58.376,184.300 58.276 C 184.685 58.175,184.370 58.093,183.600 58.093 C 182.830 58.093,182.515 58.175,182.900 58.276 M150.200 59.227 C 149.540 59.650,149.180 59.996,149.400 59.995 C 149.620 59.995,150.340 59.637,151.000 59.200 C 151.660 58.763,152.020 58.417,151.800 58.432 C 151.580 58.447,150.860 58.804,150.200 59.227 M142.856 61.213 C 142.336 61.646,142.101 62.000,142.332 62.000 C 142.563 62.000,142.872 61.807,143.017 61.572 C 143.163 61.337,143.668 60.988,144.141 60.797 C 144.638 60.597,144.747 60.446,144.400 60.439 C 144.070 60.432,143.375 60.781,142.856 61.213 M156.700 61.882 C 157.195 61.978,158.005 61.978,158.500 61.882 C 158.995 61.787,158.590 61.709,157.600 61.709 C 156.610 61.709,156.205 61.787,156.700 61.882 M181.900 61.882 C 182.395 61.978,183.205 61.978,183.700 61.882 C 184.195 61.787,183.790 61.709,182.800 61.709 C 181.810 61.709,181.405 61.787,181.900 61.882 M186.400 62.286 C 186.730 62.409,187.495 62.760,188.100 63.065 C 188.705 63.371,189.200 63.531,189.200 63.421 C 189.200 63.107,186.898 61.996,186.320 62.032 C 185.971 62.053,185.997 62.136,186.400 62.286 M266.799 63.500 C 267.322 64.215,267.813 64.800,267.889 64.800 C 268.193 64.800,267.201 63.300,266.545 62.767 C 266.113 62.416,266.210 62.696,266.799 63.500 M72.975 64.500 L 71.800 65.800 73.100 64.625 C 74.312 63.530,74.584 63.200,74.275 63.200 C 74.206 63.200,73.621 63.785,72.975 64.500 M195.000 64.800 C 195.660 65.237,196.380 65.595,196.600 65.595 C 196.820 65.595,196.460 65.237,195.800 64.800 C 195.140 64.363,194.420 64.005,194.200 64.005 C 193.980 64.005,194.340 64.363,195.000 64.800 M269.234 66.647 C 269.765 67.333,270.280 67.823,270.379 67.735 C 270.477 67.647,270.043 67.086,269.413 66.488 L 268.269 65.400 269.234 66.647 M71.295 66.266 C 71.018 66.378,70.588 66.859,70.341 67.335 C 69.920 68.145,69.959 68.138,70.946 67.230 C 71.526 66.697,72.000 66.202,72.000 66.130 C 72.000 65.984,71.993 65.985,71.295 66.266 M139.144 66.824 L 138.200 67.647 139.400 66.945 C 140.979 66.020,141.003 66.000,140.511 66.000 C 140.279 66.000,139.664 66.371,139.144 66.824 M204.800 68.420 C 206.187 69.361,206.978 69.635,206.000 68.836 C 205.450 68.386,204.820 68.017,204.600 68.015 C 204.380 68.013,204.470 68.196,204.800 68.420 M273.431 71.108 C 274.230 71.929,275.512 73.545,276.281 74.700 C 277.049 75.855,277.761 76.800,277.863 76.800 C 278.517 76.800,273.467 70.188,272.542 69.833 C 272.231 69.714,272.631 70.288,273.431 71.108 M209.686 71.000 C 210.495 71.550,211.299 72.000,211.472 72.000 C 211.644 72.000,211.123 71.550,210.314 71.000 C 209.505 70.450,208.701 70.000,208.528 70.000 C 208.356 70.000,208.877 70.450,209.686 71.000 M126.522 73.037 L 125.400 74.073 126.800 73.166 C 128.623 71.985,128.606 72.000,128.089 72.000 C 127.845 72.000,127.140 72.467,126.522 73.037 M120.370 77.100 L 119.400 78.200 120.600 77.200 C 121.260 76.650,121.875 76.155,121.967 76.100 C 122.058 76.045,121.955 76.000,121.736 76.000 C 121.518 76.000,120.903 76.495,120.370 77.100 M221.800 78.257 C 223.837 80.064,224.587 80.591,223.802 79.663 C 223.366 79.148,222.647 78.541,222.204 78.314 C 221.762 78.087,221.580 78.062,221.800 78.257 M232.200 81.400 C 232.200 82.420,232.317 82.635,232.700 82.317 C 232.975 82.089,233.200 81.676,233.200 81.400 C 233.200 81.124,232.975 80.711,232.700 80.483 C 232.317 80.165,232.200 80.380,232.200 81.400 M60.555 81.412 C 60.190 81.969,59.964 82.498,60.053 82.587 C 60.142 82.676,60.518 82.220,60.889 81.574 C 61.714 80.136,61.469 80.017,60.555 81.412 M229.467 84.770 C 230.352 85.731,231.629 85.696,231.568 84.713 C 231.544 84.311,231.493 84.308,231.335 84.700 C 231.057 85.388,230.416 85.326,229.431 84.515 C 228.665 83.883,228.668 83.903,229.467 84.770 M105.381 89.662 C 104.449 90.641,104.220 91.020,104.823 90.584 C 105.747 89.916,107.436 88.000,107.100 88.000 C 107.024 88.000,106.251 88.748,105.381 89.662 M94.604 93.596 C 93.974 94.254,93.535 94.856,93.629 94.934 C 93.723 95.012,94.313 94.474,94.939 93.738 C 96.354 92.077,96.145 91.988,94.604 93.596 M244.403 94.700 C 244.404 94.865,244.763 95.540,245.200 96.200 C 245.637 96.860,245.996 97.215,245.997 96.989 C 245.999 96.763,245.729 96.191,245.398 95.719 C 244.853 94.940,244.862 94.842,245.498 94.676 C 246.029 94.538,245.980 94.481,245.300 94.446 C 244.805 94.421,244.401 94.535,244.403 94.700 M290.540 98.000 C 290.540 99.870,290.609 100.635,290.693 99.700 C 290.777 98.765,290.777 97.235,290.693 96.300 C 290.609 95.365,290.540 96.130,290.540 98.000 M88.799 100.500 C 88.210 101.304,88.113 101.584,88.545 101.233 C 89.201 100.700,90.193 99.200,89.889 99.200 C 89.813 99.200,89.322 99.785,88.799 100.500 M187.400 105.200 C 188.060 105.637,188.780 105.995,189.000 105.996 C 189.220 105.996,188.811 105.638,188.090 105.199 C 186.392 104.163,185.836 104.164,187.400 105.200 M288.868 106.394 C 288.386 107.045,288.223 107.489,288.505 107.381 C 289.072 107.163,290.146 105.612,289.899 105.366 C 289.813 105.280,289.349 105.743,288.868 106.394 M90.891 107.349 C 90.401 108.064,90.000 108.798,90.000 108.981 C 90.000 109.163,90.459 108.635,91.020 107.809 C 91.581 106.982,91.982 106.248,91.911 106.177 C 91.840 106.107,91.381 106.634,90.891 107.349 M287.350 108.585 C 287.227 108.906,286.769 109.283,286.333 109.421 C 285.897 109.560,285.628 109.761,285.736 109.869 C 286.048 110.182,287.483 109.281,287.740 108.611 C 287.869 108.275,287.885 108.000,287.775 108.000 C 287.665 108.000,287.474 108.263,287.350 108.585 M255.256 110.834 C 254.736 111.255,254.466 111.594,254.656 111.587 C 255.144 111.569,256.576 110.443,256.371 110.239 C 256.277 110.145,255.775 110.413,255.256 110.834 M251.200 111.669 C 251.200 111.851,251.740 112.000,252.400 112.000 C 253.060 112.000,253.600 111.930,253.600 111.845 C 253.600 111.760,253.060 111.612,252.400 111.515 C 251.740 111.418,251.200 111.487,251.200 111.669 M273.787 114.375 C 274.121 115.021,274.576 115.661,274.798 115.799 C 275.020 115.936,274.823 115.407,274.361 114.624 C 273.348 112.907,272.935 112.728,273.787 114.375 M143.523 115.100 C 142.818 115.921,142.290 116.800,142.501 116.800 C 142.583 116.800,143.049 116.260,143.537 115.600 C 144.501 114.296,144.492 113.972,143.523 115.100 M266.400 117.485 C 266.400 117.701,266.760 118.293,267.200 118.800 C 267.640 119.307,268.000 119.588,268.000 119.424 C 268.000 119.260,267.640 118.669,267.200 118.109 C 266.760 117.550,266.400 117.269,266.400 117.485 M273.256 118.813 C 272.016 119.846,272.575 119.835,273.891 118.800 C 274.450 118.360,274.749 118.006,274.554 118.013 C 274.359 118.021,273.775 118.381,273.256 118.813 M127.375 120.500 L 126.200 121.800 127.500 120.625 C 128.712 119.530,128.984 119.200,128.675 119.200 C 128.606 119.200,128.021 119.785,127.375 120.500 M214.508 122.200 C 215.189 122.970,215.813 123.600,215.894 123.600 C 215.975 123.600,215.560 122.970,214.973 122.200 C 214.386 121.430,213.762 120.800,213.587 120.800 C 213.412 120.800,213.826 121.430,214.508 122.200 M258.025 123.656 C 258.011 124.016,258.349 124.736,258.776 125.256 C 259.548 126.195,259.551 126.195,259.493 125.328 C 259.460 124.848,259.290 124.545,259.114 124.653 C 258.937 124.762,258.626 124.435,258.422 123.926 C 258.174 123.308,258.042 123.218,258.025 123.656 M217.983 125.700 C 218.964 126.745,219.819 127.600,219.883 127.600 C 220.184 127.600,219.866 127.241,218.100 125.583 L 216.200 123.800 217.983 125.700 M161.055 131.400 C 161.980 132.979,162.000 133.003,162.000 132.511 C 162.000 132.279,161.629 131.664,161.176 131.144 L 160.353 130.200 161.055 131.400 M248.900 131.616 C 247.637 133.175,247.771 133.533,249.050 132.014 C 249.627 131.328,250.032 130.708,249.950 130.636 C 249.867 130.564,249.395 131.005,248.900 131.616 M259.687 131.000 C 259.691 131.440,259.832 132.340,260.000 133.000 C 260.274 134.078,260.306 134.098,260.313 133.200 C 260.317 132.650,260.176 131.750,260.000 131.200 C 259.749 130.416,259.681 130.373,259.687 131.000 M116.948 131.700 C 115.762 133.049,113.932 135.600,114.151 135.600 C 114.256 135.600,115.164 134.520,116.168 133.200 C 118.023 130.761,118.383 130.068,116.948 131.700 M227.600 136.600 C 228.346 137.370,229.047 138.000,229.157 138.000 C 229.267 138.000,228.746 137.370,228.000 136.600 C 227.254 135.830,226.553 135.200,226.443 135.200 C 226.333 135.200,226.854 135.830,227.600 136.600 M112.200 137.050 C 111.481 137.662,111.334 137.905,111.833 137.657 C 112.566 137.293,113.941 135.976,113.549 136.014 C 113.467 136.022,112.860 136.488,112.200 137.050 M231.544 139.176 C 232.064 139.629,232.679 140.000,232.911 140.000 C 233.403 140.000,233.379 139.980,231.800 139.055 L 230.600 138.353 231.544 139.176 M103.100 140.282 C 103.595 140.378,104.405 140.378,104.900 140.282 C 105.395 140.187,104.990 140.109,104.000 140.109 C 103.010 140.109,102.605 140.187,103.100 140.282 M235.300 140.287 C 235.905 140.378,236.895 140.378,237.500 140.287 C 238.105 140.195,237.610 140.120,236.400 140.120 C 235.190 140.120,234.695 140.195,235.300 140.287 M158.000 148.505 C 158.000 148.647,158.450 149.428,159.000 150.238 C 159.550 151.049,160.000 151.541,160.000 151.334 C 160.000 151.126,159.550 150.345,159.000 149.600 C 158.450 148.855,158.000 148.362,158.000 148.505 M302.493 170.000 C 302.493 170.770,302.575 171.085,302.676 170.700 C 302.776 170.315,302.776 169.685,302.676 169.300 C 302.575 168.915,302.493 169.230,302.493 170.000 M267.700 222.691 C 268.525 222.778,269.875 222.778,270.700 222.691 C 271.525 222.605,270.850 222.534,269.200 222.534 C 267.550 222.534,266.875 222.605,267.700 222.691 M285.900 222.682 C 286.395 222.778,287.205 222.778,287.700 222.682 C 288.195 222.587,287.790 222.509,286.800 222.509 C 285.810 222.509,285.405 222.587,285.900 222.682 M257.346 244.200 C 257.347 246.400,257.414 247.249,257.495 246.087 C 257.576 244.924,257.576 243.124,257.493 242.087 C 257.411 241.049,257.345 242.000,257.346 244.200 M278.700 242.697 C 280.295 242.773,282.905 242.773,284.500 242.697 C 286.095 242.621,284.790 242.559,281.600 242.559 C 278.410 242.559,277.105 242.621,278.700 242.697 M295.105 263.483 C 295.602 263.579,296.322 263.575,296.705 263.475 C 297.087 263.375,296.680 263.296,295.800 263.301 C 294.920 263.305,294.607 263.387,295.105 263.483 M276.500 263.876 C 276.885 263.976,277.515 263.976,277.900 263.876 C 278.285 263.775,277.970 263.693,277.200 263.693 C 276.430 263.693,276.115 263.775,276.500 263.876 M308.501 270.200 C 308.505 271.080,308.587 271.393,308.683 270.895 C 308.779 270.398,308.775 269.678,308.675 269.295 C 308.575 268.913,308.496 269.320,308.501 270.200 M299.600 276.558 C 299.600 276.645,300.305 276.783,301.166 276.865 C 302.028 276.948,302.647 276.876,302.543 276.707 C 302.353 276.400,299.600 276.260,299.600 276.558 M301.693 280.000 C 301.693 280.770,301.775 281.085,301.876 280.700 C 301.976 280.315,301.976 279.685,301.876 279.300 C 301.775 278.915,301.693 279.230,301.693 280.000 M89.523 305.928 C 88.360 306.394,86.005 309.472,85.742 310.868 C 85.603 311.600,85.232 312.498,84.917 312.862 C 84.602 313.226,84.107 314.315,83.816 315.281 C 83.525 316.247,82.908 317.659,82.445 318.419 C 81.982 319.178,81.602 320.267,81.601 320.838 C 81.601 321.409,81.253 322.190,80.829 322.574 C 80.405 322.957,79.932 324.020,79.778 324.936 C 79.624 325.851,79.159 327.032,78.744 327.560 C 78.329 328.088,77.877 329.230,77.738 330.098 C 77.599 330.965,77.106 332.028,76.643 332.460 C 74.391 334.556,75.558 343.302,78.200 344.127 C 78.860 344.333,79.760 344.826,80.200 345.221 C 80.640 345.617,81.540 346.071,82.200 346.231 C 82.860 346.391,83.909 346.944,84.531 347.461 C 85.153 347.977,86.027 348.400,86.473 348.400 C 86.919 348.400,87.819 348.850,88.473 349.400 C 89.127 349.950,90.041 350.400,90.505 350.400 C 90.969 350.400,91.754 350.781,92.250 351.247 C 94.396 353.263,105.655 353.191,107.879 351.147 C 108.467 350.607,108.811 350.458,108.681 350.800 C 107.169 354.764,107.358 356.491,109.557 358.803 C 111.140 360.467,111.840 360.663,115.400 360.440 C 117.027 360.337,118.597 359.568,119.500 358.430 C 120.073 357.708,121.089 358.659,121.392 360.200 C 121.479 360.640,121.644 361.450,121.760 362.000 C 122.139 363.806,126.373 367.926,128.276 368.340 C 129.198 368.540,130.437 369.086,131.030 369.552 C 131.623 370.018,132.599 370.400,133.200 370.400 C 133.801 370.400,134.754 370.763,135.318 371.207 C 135.882 371.651,137.149 372.164,138.134 372.348 C 139.119 372.532,140.416 373.069,141.016 373.541 C 141.617 374.014,142.579 374.401,143.154 374.403 C 143.729 374.404,144.740 374.763,145.400 375.200 C 148.270 377.100,151.314 376.106,152.226 372.970 C 152.579 371.754,153.122 370.273,153.432 369.680 C 154.727 367.196,154.010 364.811,151.689 363.882 C 150.845 363.545,149.927 362.995,149.650 362.660 C 149.372 362.325,148.572 361.936,147.872 361.796 C 145.735 361.367,145.200 361.162,145.200 360.773 C 145.200 360.202,147.298 360.329,149.250 361.018 C 152.202 362.060,153.660 361.093,154.452 357.569 C 154.655 356.662,155.087 355.656,155.411 355.332 C 156.594 354.148,156.160 351.527,154.526 349.988 L 153.052 348.600 156.113 348.483 L 159.174 348.367 160.677 346.533 C 163.603 342.962,162.943 336.893,159.531 335.995 C 158.579 335.744,156.963 335.102,155.941 334.569 C 154.919 334.036,153.687 333.600,153.204 333.600 C 152.721 333.600,151.875 333.245,151.323 332.811 C 150.770 332.376,149.662 331.902,148.859 331.757 C 148.057 331.611,146.664 331.066,145.765 330.546 C 144.866 330.026,143.733 329.600,143.249 329.600 C 142.764 329.600,141.856 329.221,141.230 328.759 C 136.485 325.251,127.600 328.144,127.600 333.196 C 127.600 333.876,127.220 334.946,126.756 335.575 C 126.291 336.203,125.813 337.590,125.693 338.658 C 125.573 339.726,125.123 341.076,124.693 341.658 C 124.263 342.240,123.813 343.590,123.693 344.658 C 123.573 345.726,123.124 347.074,122.696 347.654 C 122.205 348.319,121.801 349.772,121.601 351.592 C 121.209 355.158,120.593 355.986,120.295 353.346 C 119.965 350.415,117.245 348.083,113.967 347.918 L 111.616 347.800 113.008 346.044 C 113.774 345.078,114.400 343.934,114.400 343.501 C 114.400 343.069,114.850 342.181,115.400 341.527 C 115.955 340.867,116.400 339.831,116.400 339.198 C 116.400 338.570,116.654 337.803,116.965 337.492 C 118.603 335.854,119.024 324.190,117.505 322.515 C 117.123 322.093,116.599 321.130,116.341 320.374 C 115.767 318.693,111.555 314.507,109.625 313.701 C 108.849 313.377,107.781 312.771,107.253 312.356 C 106.724 311.940,105.984 311.600,105.607 311.600 C 105.231 311.600,104.502 311.235,103.987 310.789 C 103.473 310.343,102.591 309.869,102.026 309.735 C 101.462 309.602,100.730 309.276,100.400 309.011 C 97.374 306.581,91.818 305.007,89.523 305.928 M304.093 310.800 C 304.093 311.570,304.175 311.885,304.276 311.500 C 304.376 311.115,304.376 310.485,304.276 310.100 C 304.175 309.715,304.093 310.030,304.093 310.800 M323.693 310.800 C 323.693 311.570,323.775 311.885,323.876 311.500 C 323.976 311.115,323.976 310.485,323.876 310.100 C 323.775 309.715,323.693 310.030,323.693 310.800 M291.930 315.540 C 290.391 315.719,289.352 316.094,288.704 316.702 C 288.178 317.196,287.436 317.600,287.054 317.600 C 286.166 317.600,284.000 318.712,284.000 319.168 C 284.000 319.711,280.368 321.455,278.694 321.716 C 277.865 321.846,276.716 322.323,276.140 322.776 C 275.564 323.229,274.791 323.600,274.424 323.600 C 274.056 323.600,273.158 324.041,272.428 324.579 C 271.699 325.118,270.616 325.665,270.022 325.795 C 268.158 326.205,265.885 329.364,265.681 331.832 C 265.490 334.130,265.089 334.279,263.337 332.706 C 261.859 331.377,258.210 331.308,255.879 332.565 C 254.822 333.134,253.542 333.600,253.035 333.600 C 252.527 333.600,251.486 334.024,250.722 334.543 C 249.958 335.062,248.691 335.607,247.907 335.754 C 247.123 335.901,246.030 336.376,245.477 336.811 C 244.925 337.245,244.269 337.600,244.019 337.600 C 241.231 337.600,240.659 344.684,243.225 347.424 C 243.990 348.240,243.985 348.262,242.728 349.972 C 241.462 351.694,240.400 351.589,240.400 349.742 C 240.400 348.541,239.333 347.113,237.242 345.518 L 235.000 343.807 231.000 343.675 C 227.332 343.554,226.840 343.629,225.079 344.572 C 223.894 345.206,222.515 345.601,221.479 345.602 C 220.418 345.602,218.916 346.044,217.400 346.800 C 216.080 347.458,214.803 347.998,214.562 347.998 C 214.321 347.999,213.798 348.360,213.400 348.800 C 212.275 350.043,212.000 349.773,212.000 347.426 C 212.000 341.558,212.149 341.603,192.726 341.601 C 172.964 341.600,173.600 341.375,173.600 348.361 C 173.600 353.993,173.941 354.275,181.241 354.667 L 186.000 354.923 186.000 367.492 L 186.000 380.062 187.132 381.193 C 188.930 382.991,195.063 383.368,197.417 381.826 C 198.667 381.007,198.791 379.632,198.796 366.500 L 198.800 354.800 202.500 354.783 C 204.535 354.773,206.948 354.620,207.863 354.443 L 209.526 354.121 209.663 359.628 C 209.784 364.479,209.901 365.271,210.645 366.277 C 211.214 367.046,211.548 368.216,211.667 369.852 C 211.979 374.172,215.649 378.149,219.721 378.580 C 223.781 379.010,228.942 378.474,230.935 377.415 C 231.851 376.929,233.410 376.422,234.399 376.290 C 237.752 375.842,239.213 372.040,237.200 369.000 C 236.042 367.251,236.195 366.601,238.211 364.704 C 239.336 363.646,240.176 362.431,240.427 361.500 C 240.926 359.646,241.432 359.581,241.760 361.329 C 241.924 362.201,242.893 363.609,244.583 365.429 L 247.156 368.200 251.784 368.335 C 256.163 368.462,256.507 368.414,258.177 367.435 C 259.148 366.866,260.290 366.400,260.715 366.400 C 261.141 366.400,262.151 365.950,262.962 365.400 C 263.772 364.850,264.709 364.400,265.044 364.400 C 266.216 364.400,267.519 363.522,270.088 361.000 C 272.105 359.020,272.422 358.244,272.675 354.658 C 272.932 351.014,273.345 350.473,273.719 353.290 C 274.684 360.558,287.109 357.770,286.287 350.470 C 286.178 349.506,285.739 348.240,285.310 347.658 C 284.882 347.076,284.425 345.935,284.295 345.123 C 284.164 344.310,283.702 343.140,283.266 342.523 C 282.831 341.905,282.363 340.743,282.227 339.941 C 282.091 339.138,281.624 338.030,281.189 337.477 C 280.166 336.176,280.194 335.827,281.386 335.046 C 282.761 334.145,283.600 334.228,283.600 335.265 C 283.600 335.741,284.026 336.866,284.546 337.765 C 285.066 338.664,285.611 340.057,285.757 340.859 C 285.902 341.662,286.376 342.770,286.811 343.323 C 287.245 343.875,287.600 344.712,287.600 345.183 C 287.600 349.608,293.918 352.061,297.642 349.083 C 300.257 346.990,300.400 346.761,300.400 344.668 C 300.400 342.689,300.405 342.681,301.215 343.414 C 301.748 343.896,302.849 344.210,304.400 344.323 C 307.976 344.581,308.630 344.313,311.736 341.311 C 312.754 340.326,312.546 335.487,311.450 334.686 C 311.046 334.390,310.564 333.284,310.360 332.178 C 310.158 331.090,309.664 329.750,309.262 329.200 C 308.861 328.650,308.426 327.539,308.296 326.730 C 308.166 325.922,307.687 324.887,307.230 324.430 C 306.774 323.974,306.400 323.170,306.400 322.645 C 306.400 321.692,304.025 317.861,302.830 316.886 C 301.276 315.619,296.409 315.018,291.930 315.540 M99.180 323.363 C 99.521 323.661,100.248 324.042,100.795 324.210 C 101.899 324.547,104.835 326.366,105.294 326.996 C 106.031 328.008,105.583 332.587,104.590 334.200 C 104.048 335.080,103.603 336.150,103.602 336.578 C 103.596 339.034,99.571 340.478,97.262 338.852 C 96.678 338.441,95.750 337.967,95.200 337.797 C 94.650 337.628,93.787 337.167,93.281 336.773 C 92.776 336.378,91.831 335.939,91.181 335.796 C 90.532 335.653,90.004 335.326,90.010 335.068 C 90.035 333.837,90.773 331.570,91.330 331.013 C 91.672 330.670,92.072 329.592,92.219 328.615 C 92.365 327.639,92.916 326.256,93.442 325.543 C 93.969 324.829,94.400 323.755,94.400 323.156 C 94.400 321.502,97.191 321.623,99.180 323.363 M295.600 329.447 C 295.600 329.777,295.420 329.936,295.200 329.800 C 294.980 329.664,294.800 329.283,294.800 328.953 C 294.800 328.623,294.980 328.464,295.200 328.600 C 295.420 328.736,295.600 329.117,295.600 329.447 M297.546 334.220 C 297.673 334.873,297.605 334.902,297.046 334.438 C 296.282 333.804,296.186 333.062,296.900 333.300 C 297.175 333.391,297.466 333.806,297.546 334.220 M299.357 338.233 C 299.491 338.581,299.594 339.166,299.587 339.533 C 299.571 340.371,298.400 338.981,298.400 338.124 C 298.400 337.393,299.064 337.468,299.357 338.233 M141.024 342.987 C 141.769 343.551,141.758 343.575,140.733 343.587 C 139.428 343.603,138.400 343.237,138.400 342.757 C 138.400 342.188,140.173 342.344,141.024 342.987 M146.400 345.000 C 146.826 345.514,146.697 345.600,145.498 345.600 C 144.728 345.600,143.874 345.330,143.600 345.000 C 143.174 344.486,143.303 344.400,144.502 344.400 C 145.272 344.400,146.126 344.670,146.400 345.000 M151.024 346.987 C 151.773 347.554,151.765 347.575,150.800 347.582 C 149.409 347.592,148.000 347.175,148.000 346.753 C 148.000 346.181,150.180 346.349,151.024 346.987 M138.026 356.814 C 139.180 357.431,138.968 358.053,137.700 357.770 C 135.597 357.303,135.200 357.144,135.200 356.773 C 135.200 356.271,137.063 356.298,138.026 356.814 M142.567 358.643 C 143.740 359.093,143.212 359.649,141.731 359.524 C 140.053 359.382,139.357 358.400,140.934 358.400 C 141.484 358.400,142.219 358.509,142.567 358.643 " stroke="none" fill="#9b0404" fill-rule="evenodd"></path><path id="path4" d="M247.543 71.780 C 245.451 73.202,244.976 74.911,246.331 76.138 C 247.318 77.031,247.483 76.986,248.183 75.633 C 248.575 74.875,249.313 74.298,250.293 73.985 C 252.481 73.286,252.682 72.952,251.605 71.805 C 250.418 70.542,249.375 70.535,247.543 71.780 M254.418 86.239 C 254.408 86.700,254.779 87.510,255.242 88.039 C 255.976 88.877,256.054 89.333,255.853 91.600 C 255.056 100.592,255.122 100.371,253.200 100.406 C 252.245 100.424,252.236 100.446,253.000 100.897 C 254.262 101.642,254.630 101.585,255.853 100.458 L 257.000 99.400 258.022 100.800 C 258.584 101.570,259.452 103.048,259.950 104.084 C 261.362 107.021,264.036 108.177,268.787 107.906 C 272.954 107.669,273.190 107.810,273.228 110.580 C 273.264 113.144,273.933 111.893,273.966 109.200 C 274.004 106.073,274.174 106.125,266.955 107.059 C 263.703 107.480,261.717 105.837,259.809 101.150 C 257.847 96.329,260.910 92.011,266.300 92.002 C 269.049 91.998,267.100 89.404,263.591 88.397 C 262.788 88.167,262.186 88.285,261.347 88.839 C 259.216 90.243,257.409 89.520,255.118 86.345 C 254.457 85.430,254.435 85.427,254.418 86.239 M263.588 90.384 C 264.268 90.814,264.274 90.808,262.313 91.699 C 260.911 92.336,258.032 95.649,258.010 96.651 C 257.975 98.228,256.800 97.980,256.800 96.395 C 256.800 92.757,257.452 91.677,260.165 90.817 C 263.071 89.895,262.858 89.922,263.588 90.384 M260.600 112.000 C 260.998 112.440,261.482 112.800,261.676 112.800 C 261.870 112.800,262.499 113.108,263.074 113.485 C 264.267 114.267,265.321 114.520,264.962 113.938 C 264.829 113.723,264.629 113.638,264.517 113.749 C 264.406 113.861,264.109 113.780,263.857 113.570 C 263.054 112.900,260.373 111.200,260.120 111.200 C 259.986 111.200,260.202 111.560,260.600 112.000 M287.311 116.500 C 286.391 117.689,286.444 118.533,287.582 120.827 C 288.229 122.132,288.633 123.225,288.480 123.257 C 288.326 123.288,285.950 123.342,283.200 123.378 C 275.989 123.471,268.941 126.565,262.872 132.300 C 262.373 132.772,261.780 132.955,261.100 132.847 C 260.935 132.821,260.800 132.983,260.800 133.208 C 260.800 134.080,264.688 132.441,266.600 130.763 C 271.950 126.068,281.822 123.418,287.516 125.147 C 291.947 126.493,292.750 125.577,290.028 122.283 C 288.280 120.168,287.410 118.030,287.798 116.806 C 288.088 115.891,287.882 115.762,287.311 116.500 M340.101 147.400 C 340.105 148.280,340.187 148.593,340.283 148.095 C 340.379 147.598,340.375 146.878,340.275 146.495 C 340.175 146.113,340.096 146.520,340.101 147.400 M213.200 160.422 C 213.200 160.639,213.647 161.021,214.194 161.270 C 214.741 161.519,215.475 162.161,215.826 162.695 C 216.728 164.072,218.768 164.800,221.725 164.800 C 223.768 164.800,224.420 164.959,225.000 165.600 C 225.911 166.606,226.561 166.647,225.944 165.659 C 225.130 164.356,223.871 163.838,220.895 163.581 C 218.817 163.401,217.735 163.103,217.095 162.532 C 215.783 161.363,213.200 159.964,213.200 160.422 M235.926 167.688 C 234.691 168.966,233.023 169.143,231.180 168.190 C 230.531 167.854,230.000 167.669,230.000 167.779 C 230.000 169.395,235.349 169.499,236.533 167.907 C 237.625 166.439,237.259 166.307,235.926 167.688 M245.200 167.387 C 245.200 167.497,246.087 168.036,247.172 168.586 C 249.948 169.993,249.780 168.709,250.007 190.200 L 250.215 209.800 250.307 190.389 C 250.412 168.466,250.619 169.933,247.172 168.186 C 246.087 167.636,245.200 167.277,245.200 167.387 M302.101 169.400 C 302.105 170.280,302.187 170.593,302.283 170.095 C 302.379 169.598,302.375 168.878,302.275 168.495 C 302.175 168.113,302.096 168.520,302.101 169.400 M252.087 220.791 C 252.591 221.597,253.200 221.874,253.200 221.296 C 253.200 221.129,252.836 220.765,252.391 220.487 C 251.641 220.019,251.619 220.041,252.087 220.791 M268.711 222.293 C 269.651 222.378,271.091 222.377,271.911 222.291 C 272.730 222.205,271.960 222.136,270.200 222.137 C 268.440 222.139,267.770 222.209,268.711 222.293 M284.707 222.290 C 285.426 222.379,286.506 222.377,287.107 222.286 C 287.708 222.195,287.120 222.122,285.800 222.124 C 284.480 222.126,283.988 222.201,284.707 222.290 M276.500 233.876 C 276.885 233.976,277.515 233.976,277.900 233.876 C 278.285 233.775,277.970 233.693,277.200 233.693 C 276.430 233.693,276.115 233.775,276.500 233.876 M284.900 233.876 C 285.285 233.976,285.915 233.976,286.300 233.876 C 286.685 233.775,286.370 233.693,285.600 233.693 C 284.830 233.693,284.515 233.775,284.900 233.876 M260.747 236.604 C 260.169 236.918,259.574 237.492,259.425 237.879 C 259.220 238.413,259.394 238.357,260.153 237.644 C 262.209 235.713,264.529 235.966,266.851 238.375 C 269.054 240.661,268.906 239.913,266.677 237.500 C 265.127 235.821,262.828 235.474,260.747 236.604 M250.800 237.056 C 250.800 237.295,251.340 238.169,252.000 239.000 C 252.660 239.831,253.200 240.318,253.200 240.084 C 253.200 239.849,252.968 239.419,252.684 239.129 C 252.400 238.838,251.860 238.155,251.484 237.611 C 251.108 237.067,250.800 236.817,250.800 237.056 M278.917 242.297 C 280.411 242.374,282.751 242.374,284.117 242.296 C 285.482 242.218,284.260 242.155,281.400 242.155 C 278.540 242.156,277.422 242.220,278.917 242.297 " stroke="none" fill="#5cb16c" fill-rule="evenodd"></path><path id="path5" d="M155.400 17.955 C 153.366 18.113,151.273 18.516,150.588 18.882 C 149.921 19.238,147.887 19.660,146.068 19.818 C 144.167 19.984,142.140 20.423,141.302 20.850 C 140.500 21.259,138.934 21.710,137.822 21.852 C 136.710 21.994,134.951 22.536,133.913 23.055 C 132.876 23.575,131.616 24.006,131.113 24.012 C 130.611 24.019,129.480 24.468,128.600 25.010 C 127.720 25.552,126.640 25.998,126.200 26.000 C 125.760 26.002,124.680 26.448,123.800 26.990 C 122.920 27.532,121.837 27.981,121.393 27.988 C 120.949 27.994,119.923 28.450,119.114 29.000 C 118.305 29.550,117.387 30.000,117.075 30.000 C 116.763 30.000,116.079 30.334,115.554 30.743 C 115.029 31.151,113.790 31.875,112.800 32.352 C 110.778 33.325,109.916 33.827,108.192 35.035 C 107.536 35.494,106.667 35.990,106.260 36.138 C 105.853 36.285,105.043 36.779,104.460 37.235 C 103.877 37.691,102.494 38.635,101.387 39.332 C 92.448 44.962,73.294 63.138,66.968 71.995 C 66.105 73.202,65.164 74.462,64.875 74.795 C 63.378 76.519,62.000 78.576,62.000 79.084 C 62.000 79.399,61.505 80.500,60.900 81.529 C 59.819 83.369,59.800 83.511,59.811 90.000 L 59.822 96.600 61.111 98.956 C 61.820 100.252,62.400 101.536,62.400 101.808 C 62.400 102.626,67.792 107.999,68.627 108.012 C 69.052 108.019,70.120 108.468,71.000 109.010 C 73.204 110.368,76.657 110.388,78.965 109.057 C 79.864 108.538,81.050 108.002,81.600 107.865 C 82.486 107.645,83.924 106.394,86.299 103.778 C 86.709 103.325,87.810 101.885,88.745 100.578 C 90.955 97.488,94.732 93.335,100.200 87.982 C 106.853 81.469,108.483 80.029,112.401 77.211 C 114.380 75.787,116.000 74.482,116.000 74.311 C 116.000 74.140,116.205 74.000,116.455 74.000 C 116.705 74.000,118.190 73.148,119.755 72.107 C 121.320 71.066,123.230 69.899,124.000 69.515 C 124.770 69.131,125.670 68.662,126.000 68.473 C 127.479 67.626,129.079 66.790,130.000 66.384 C 130.550 66.142,131.855 65.507,132.900 64.972 C 133.945 64.437,135.115 63.999,135.500 63.997 C 135.885 63.996,136.737 63.641,137.394 63.208 C 138.050 62.775,139.358 62.305,140.299 62.164 C 141.240 62.023,142.412 61.591,142.905 61.204 C 143.417 60.802,144.913 60.378,146.400 60.213 C 147.830 60.055,149.563 59.601,150.251 59.205 C 151.155 58.684,152.816 58.406,156.251 58.199 C 159.178 58.023,161.839 57.623,163.186 57.156 C 166.092 56.151,174.848 56.071,177.113 57.029 C 177.931 57.375,180.940 57.851,183.800 58.087 C 187.150 58.364,189.498 58.762,190.400 59.207 C 191.170 59.586,192.850 60.025,194.133 60.181 C 195.416 60.338,197.036 60.794,197.733 61.195 C 198.430 61.596,199.810 62.054,200.800 62.213 C 201.790 62.372,203.029 62.839,203.554 63.251 C 204.079 63.663,204.844 64.000,205.254 64.000 C 205.664 64.000,206.855 64.435,207.900 64.967 C 208.945 65.498,210.430 66.217,211.200 66.564 C 211.970 66.911,212.870 67.348,213.200 67.535 C 214.161 68.081,215.696 68.907,217.148 69.662 C 217.889 70.047,218.789 70.628,219.148 70.953 C 219.508 71.278,220.251 71.738,220.801 71.974 C 221.350 72.210,222.610 73.029,223.600 73.794 C 224.590 74.558,225.903 75.467,226.519 75.812 C 227.134 76.157,227.944 76.689,228.319 76.994 C 228.693 77.299,230.100 78.455,231.445 79.563 C 232.789 80.671,233.991 81.476,234.115 81.352 C 234.239 81.228,234.957 80.914,235.710 80.655 C 236.593 80.352,237.981 79.141,239.609 77.254 C 242.307 74.126,243.282 73.507,244.679 74.033 C 245.371 74.294,245.611 74.197,245.807 73.577 C 246.103 72.645,248.684 70.800,249.693 70.800 C 250.131 70.800,250.400 70.499,250.400 70.009 C 250.400 67.284,259.564 66.502,265.414 68.729 C 269.087 70.127,270.031 70.376,269.726 69.866 C 269.572 69.610,269.780 69.670,270.188 70.000 C 270.880 70.561,270.915 70.528,270.719 69.497 C 270.549 68.602,270.612 68.478,271.050 68.842 C 271.348 69.089,271.505 69.430,271.400 69.600 C 271.295 69.770,271.522 70.155,271.904 70.455 C 272.519 70.936,272.542 70.926,272.103 70.363 C 271.830 70.013,271.705 69.628,271.825 69.509 C 271.944 69.389,271.622 68.956,271.109 68.546 C 270.595 68.136,269.164 66.540,267.928 65.000 C 264.211 60.369,256.650 52.845,252.380 49.528 C 251.621 48.939,250.280 47.789,249.400 46.973 C 248.520 46.158,246.810 44.760,245.600 43.866 C 244.390 42.973,242.128 41.287,240.572 40.121 C 239.017 38.954,237.594 38.000,237.410 38.000 C 237.226 38.000,236.486 37.550,235.764 37.000 C 235.043 36.450,234.332 36.000,234.184 36.000 C 234.037 36.000,233.381 35.550,232.727 35.000 C 232.073 34.450,231.263 34.000,230.927 34.000 C 230.591 34.000,229.781 33.550,229.127 33.000 C 228.473 32.450,227.717 32.000,227.447 32.000 C 227.177 32.000,226.345 31.550,225.600 31.000 C 224.855 30.450,223.955 30.000,223.600 30.000 C 223.245 30.000,222.345 29.550,221.600 29.000 C 220.855 28.450,219.865 28.000,219.400 28.000 C 218.935 28.000,217.945 27.550,217.200 27.000 C 216.455 26.450,215.385 25.994,214.822 25.988 C 214.260 25.981,213.080 25.532,212.200 24.990 C 211.320 24.448,210.149 24.003,209.597 24.002 C 209.045 24.001,207.785 23.576,206.797 23.057 C 205.809 22.539,204.189 22.008,203.199 21.878 C 202.208 21.749,200.588 21.292,199.599 20.863 C 198.609 20.435,196.390 19.959,194.667 19.805 C 192.943 19.651,190.695 19.155,189.670 18.701 C 187.656 17.811,163.907 17.293,155.400 17.955 M156.600 61.961 C 155.060 62.122,153.260 62.538,152.600 62.886 C 151.939 63.233,150.319 63.649,149.000 63.811 C 147.680 63.972,145.791 64.530,144.803 65.052 C 143.815 65.573,142.555 66.001,142.003 66.002 C 141.451 66.003,140.280 66.448,139.400 66.990 C 138.520 67.532,137.532 67.981,137.204 67.988 C 136.582 68.001,132.726 69.901,128.600 72.227 C 127.280 72.971,125.773 73.769,125.251 73.999 C 124.729 74.229,123.289 75.180,122.051 76.113 C 120.813 77.045,119.265 78.151,118.610 78.572 C 117.956 78.992,117.236 79.484,117.010 79.664 C 108.830 86.213,94.000 101.346,94.000 103.145 C 94.000 103.331,93.550 103.969,93.000 104.562 C 92.450 105.156,92.000 105.804,92.000 106.003 C 92.000 106.202,91.565 107.005,91.034 107.788 C 90.503 108.570,89.940 109.969,89.784 110.897 C 89.627 111.824,89.210 113.023,88.857 113.562 C 87.783 115.201,87.694 122.304,88.720 124.481 C 89.166 125.427,89.704 127.055,89.917 128.100 C 90.603 131.477,95.126 137.118,97.874 138.024 C 98.603 138.265,99.200 138.592,99.200 138.751 C 99.200 140.236,106.456 140.429,108.562 139.000 C 109.372 138.450,110.257 138.000,110.527 138.000 C 111.282 138.000,113.957 135.653,115.275 133.833 C 119.620 127.832,132.654 114.986,135.699 113.703 C 136.347 113.429,137.784 112.484,138.891 111.603 C 139.999 110.721,141.116 110.000,141.375 110.000 C 141.633 110.000,142.455 109.550,143.200 109.000 C 143.945 108.450,144.937 108.000,145.402 108.000 C 145.868 108.000,146.620 107.654,147.073 107.232 C 147.527 106.810,148.733 106.339,149.753 106.186 C 150.774 106.033,152.017 105.587,152.515 105.195 C 153.053 104.772,154.517 104.365,156.119 104.194 C 157.603 104.035,159.481 103.566,160.293 103.152 C 162.513 102.021,177.887 102.021,180.107 103.152 C 180.919 103.566,182.780 104.033,184.243 104.190 C 185.706 104.347,187.465 104.817,188.152 105.236 C 188.838 105.655,189.778 105.998,190.240 105.999 C 190.703 105.999,191.927 106.450,192.962 107.000 C 193.996 107.550,195.022 108.000,195.242 108.000 C 195.462 108.000,196.305 108.450,197.114 109.000 C 197.923 109.550,198.895 110.000,199.273 110.000 C 199.651 110.000,200.104 110.237,200.280 110.527 C 200.645 111.130,204.898 113.997,205.441 114.007 C 205.639 114.011,206.631 114.776,207.646 115.707 C 208.662 116.638,210.092 117.850,210.825 118.400 C 212.737 119.836,218.948 126.340,222.829 130.972 C 230.054 139.595,236.125 142.282,240.962 139.000 C 241.772 138.450,242.693 138.000,243.009 138.000 C 243.723 138.000,248.000 133.903,248.000 133.218 C 248.000 132.942,248.433 132.201,248.962 131.572 C 249.492 130.943,250.048 129.702,250.198 128.814 C 250.348 127.926,250.617 127.200,250.796 127.200 C 251.273 127.200,252.000 124.886,252.000 123.365 C 252.000 122.234,251.623 121.732,249.300 119.768 C 243.296 114.694,242.250 112.738,240.334 103.000 C 239.793 100.248,236.937 95.155,234.167 92.000 C 233.685 91.450,232.691 89.830,231.959 88.400 C 231.226 86.970,230.197 85.457,229.671 85.037 C 229.145 84.618,228.418 83.958,228.057 83.571 C 227.052 82.496,221.461 78.000,221.129 78.000 C 220.968 78.000,219.633 77.100,218.161 76.000 C 216.689 74.900,215.319 74.000,215.116 74.000 C 214.913 74.000,214.157 73.550,213.436 73.000 C 212.714 72.450,211.862 72.000,211.542 72.000 C 211.222 72.000,210.789 71.830,210.580 71.622 C 209.893 70.938,203.905 68.000,203.199 68.000 C 202.819 68.000,202.048 67.638,201.485 67.196 C 200.923 66.753,199.525 66.213,198.379 65.996 C 197.234 65.779,195.734 65.262,195.048 64.847 C 194.362 64.432,192.756 63.967,191.480 63.815 C 190.204 63.662,188.314 63.158,187.280 62.695 C 185.255 61.788,163.285 61.262,156.600 61.961 M250.492 73.869 C 247.886 74.789,247.232 76.341,248.717 78.084 C 249.333 78.808,250.816 80.739,252.013 82.376 C 257.667 90.111,258.670 90.677,262.307 88.192 C 262.753 87.887,255.772 77.167,253.543 74.733 L 252.200 73.266 250.492 73.869 M278.296 79.064 C 278.673 79.216,278.648 79.409,278.196 79.861 C 277.528 80.529,277.381 81.383,278.000 81.000 C 278.220 80.864,278.400 80.954,278.400 81.200 C 278.400 81.446,278.592 81.528,278.827 81.383 C 279.062 81.238,279.154 80.858,279.032 80.539 C 278.907 80.215,278.984 80.066,279.205 80.203 C 279.422 80.337,279.600 80.293,279.600 80.104 C 279.600 79.611,278.715 78.794,278.220 78.832 C 277.989 78.849,278.023 78.953,278.296 79.064 M280.132 86.167 C 280.252 86.479,280.101 86.829,279.797 86.946 C 279.169 87.187,279.620 89.411,280.452 90.173 C 280.789 90.482,280.840 90.462,280.635 90.100 C 280.386 89.658,280.818 89.425,281.669 89.542 C 281.817 89.563,281.758 88.999,281.537 88.290 C 281.316 87.580,281.039 86.685,280.921 86.300 C 280.803 85.915,280.528 85.600,280.311 85.600 C 280.093 85.600,280.012 85.855,280.132 86.167 M263.385 92.425 C 257.912 94.017,258.089 103.589,263.645 106.423 C 265.790 107.517,266.400 107.434,266.400 106.046 C 266.400 105.251,266.717 104.684,267.419 104.224 C 270.241 102.375,270.777 98.644,268.817 94.500 C 267.529 91.779,266.699 91.462,263.385 92.425 M249.525 94.810 C 248.934 94.979,248.320 95.001,248.161 94.859 C 248.002 94.716,248.003 94.828,248.164 95.107 C 248.324 95.385,248.668 95.486,248.928 95.330 C 249.187 95.174,249.136 95.372,248.813 95.769 C 248.288 96.415,248.314 96.563,249.054 97.162 C 249.510 97.531,250.087 98.214,250.336 98.680 C 250.890 99.715,252.229 99.500,252.229 98.376 C 252.229 97.949,252.126 97.600,252.002 97.600 C 251.877 97.600,251.734 97.110,251.684 96.511 C 251.560 95.008,250.834 94.436,249.525 94.810 M247.822 106.835 C 247.946 107.036,247.788 107.200,247.470 107.200 C 246.099 107.200,246.330 110.997,247.729 111.441 C 248.188 111.586,248.809 111.952,249.110 112.253 C 249.411 112.554,250.049 112.786,250.529 112.768 C 251.008 112.751,251.175 112.646,250.900 112.535 C 250.625 112.424,250.400 112.158,250.400 111.943 C 250.400 111.728,250.580 111.664,250.800 111.800 C 251.343 112.136,251.305 111.892,250.602 110.546 C 250.274 109.916,250.004 109.119,250.002 108.776 C 249.999 107.900,249.035 106.681,248.253 106.567 C 247.892 106.514,247.698 106.634,247.822 106.835 M147.000 113.813 C 146.780 113.877,146.103 114.040,145.496 114.174 C 144.108 114.480,142.000 117.305,142.000 118.860 C 142.000 120.063,144.619 125.600,145.188 125.600 C 145.372 125.600,145.708 126.134,145.935 126.787 C 146.282 127.782,148.236 131.291,150.286 134.600 C 150.558 135.040,151.225 136.327,151.767 137.459 C 152.310 138.591,152.919 139.581,153.121 139.659 C 153.322 139.737,153.875 140.610,154.349 141.600 C 155.385 143.764,156.117 145.035,158.117 148.148 C 158.952 149.447,159.905 151.069,160.235 151.754 C 160.565 152.440,161.360 153.900,162.002 155.000 C 162.643 156.100,163.544 157.720,164.005 158.600 C 164.466 159.480,165.370 161.010,166.014 162.000 C 166.659 162.990,167.481 164.360,167.841 165.045 C 168.383 166.075,168.986 166.441,171.348 167.171 C 175.395 168.422,222.625 168.332,224.552 167.069 C 226.377 165.872,225.060 164.800,221.764 164.800 C 218.691 164.800,217.384 164.342,215.710 162.680 C 212.516 159.509,214.642 159.823,194.868 159.600 C 176.094 159.388,176.000 159.378,176.000 157.564 C 176.000 157.408,175.278 156.137,174.395 154.740 C 173.512 153.343,172.423 151.480,171.974 150.600 C 171.125 148.935,170.350 147.561,167.000 141.789 C 164.753 137.916,164.202 136.950,160.076 129.639 C 158.467 126.789,156.892 124.242,156.576 123.980 C 156.259 123.717,155.997 123.209,155.993 122.851 C 155.989 122.493,155.494 121.441,154.893 120.514 C 154.292 119.587,153.285 118.003,152.656 116.994 C 151.172 114.616,148.804 113.284,147.000 113.813 " stroke="none" fill="#44947c" fill-rule="evenodd"></path></g></svg>